<svg width="24" height="24" viewBox="0 0 24 24" fill="none" xmlns="http://www.w3.org/2000/svg">
<path d="M11.8281 3.17381L11.5564 2.75411L11.5559 2.7544L11.8281 3.17381ZM12.3662 3.16991L12.6327 2.74685L12.6324 2.74666L12.3662 3.16991ZM20.0664 8.02049L20.333 7.59747L20.3329 7.59743L20.0664 8.02049ZM20.2998 8.44237L20.7998 8.44154L20.7998 8.44108L20.2998 8.44237ZM20.3193 20.1943L20.8193 20.1945L20.8193 20.1935L20.3193 20.1943ZM14.2979 20.9531L13.7979 20.9547L13.7979 20.9556L14.2979 20.9531ZM14.2783 14.8906L14.7783 14.889V14.8888L14.2783 14.8906ZM10.0586 14.8935L9.55859 14.8947L9.5586 14.8951L10.0586 14.8935ZM10.0771 20.9531L10.5772 20.9556L10.5771 20.9516L10.0771 20.9531ZM10.0303 21V21.5L10.032 21.5L10.0303 21ZM4.00781 20.1465H4.50781L4.50781 20.1456L4.00781 20.1465ZM3.9873 8.53416L3.48731 8.53485L3.48731 8.53505L3.9873 8.53416ZM4.21582 8.11424L4.48801 8.53366L4.48802 8.53365L4.21582 8.11424ZM11.8281 3.17381L12.0999 3.59352L12.1 3.59316L12.3662 3.16991L12.6324 2.74666C12.3023 2.53905 11.8824 2.543 11.5564 2.75411L11.8281 3.17381ZM12.3662 3.16991L12.0997 3.59297L19.7999 8.44355L20.0664 8.02049L20.3329 7.59743L12.6327 2.74685L12.3662 3.16991ZM20.0664 8.02049L19.7999 8.44352L19.7998 8.44366L20.2998 8.44237L20.7998 8.44108C20.7989 8.09878 20.623 7.78024 20.333 7.59747L20.0664 8.02049ZM20.2998 8.44237L19.7998 8.4432L19.8193 20.1952L20.3193 20.1943L20.8193 20.1935L20.7998 8.44154L20.2998 8.44237ZM20.3193 20.1943L19.8193 20.1942C19.8193 20.3449 19.664 20.5 19.5137 20.5V21V21.5C20.2167 21.5 20.8191 20.8969 20.8193 20.1945L20.3193 20.1943ZM19.5137 21V20.5H14.3447V21V21.5H19.5137V21ZM14.3447 21V20.5C14.5974 20.5 14.7966 20.7048 14.7978 20.9506L14.2979 20.9531L13.7979 20.9556C13.7993 21.2532 14.0402 21.5 14.3447 21.5V21ZM14.2979 20.9531L14.7978 20.9515L14.7783 14.889L14.2783 14.8906L13.7783 14.8922L13.7979 20.9547L14.2979 20.9531ZM14.2783 14.8906L14.7783 14.8888C14.7764 14.3377 14.329 13.8926 13.7783 13.8926V14.3926V14.8926L13.7783 14.8924L14.2783 14.8906ZM13.7783 14.3926V13.8926H10.5586V14.3926V14.8926H13.7783V14.3926ZM10.5586 14.3926V13.8926C10.0056 13.8926 9.55732 14.3413 9.5586 14.8947L10.0586 14.8935L10.5586 14.8924L10.5586 14.8926V14.3926ZM10.0586 14.8935L9.5586 14.8951L9.57715 20.9546L10.0771 20.9531L10.5771 20.9516L10.5586 14.892L10.0586 14.8935ZM10.0771 20.9531L9.57715 20.9506C9.57838 20.7031 9.77887 20.5008 10.0286 20.5L10.0303 21L10.032 21.5C10.3334 21.499 10.5757 21.2549 10.5771 20.9556L10.0771 20.9531ZM10.0303 21V20.5H4.86133V21V21.5H10.0303V21ZM4.86133 21V20.5C4.66333 20.5 4.50781 20.3444 4.50781 20.1465H4.00781H3.50781C3.50781 20.8966 4.11095 21.5 4.86133 21.5V21ZM4.00781 20.1465L4.50781 20.1456L4.4873 8.53328L3.9873 8.53416L3.48731 8.53505L3.50781 20.1474L4.00781 20.1465ZM3.9873 8.53416L4.4873 8.53348L4.48801 8.53366L4.21582 8.11424L3.94363 7.69482C3.66044 7.8786 3.48684 8.19401 3.48731 8.53485L3.9873 8.53416ZM4.21582 8.11424L4.48802 8.53365L12.1003 3.59323L11.8281 3.17381L11.5559 2.7544L3.94362 7.69483L4.21582 8.11424Z" fill="currentColor"/>
</svg>
