<svg width="24" height="24" viewBox="0 0 24 24" fill="none" xmlns="http://www.w3.org/2000/svg">
<path d="M17 2C18.6569 2 20 3.34315 20 5C20 5.82036 19.6696 6.56339 19.1367 7.10449L21.2373 17.1875C21.412 18.0259 21.5 18.88 21.5 19.7363V20.5C21.5 21.3284 20.8284 22 20 22H5C4.17157 22 3.5 21.3284 3.5 20.5V19.5C3.50003 18.6716 4.17159 18 5 18H5.5C5.77612 18 5.99997 18.2239 6 18.5C6 18.7761 5.77614 19 5.5 19H5C4.72388 19 4.50003 19.2239 4.5 19.5V20.5C4.5 20.7761 4.72386 21 5 21H20C20.2761 21 20.5 20.7761 20.5 20.5V19.7363C20.5 18.9485 20.4185 18.1629 20.2578 17.3916L18.2441 7.72852C17.8648 7.90174 17.4438 8 17 8H15.5V17.5C15.5 18.3284 14.8284 19 14 19H12.75C12.4739 19 12.25 18.7761 12.25 18.5C12.25 18.2239 12.4739 18 12.75 18H14C14.2761 18 14.5 17.7761 14.5 17.5V8H9.5V10C9.49999 10.2761 9.27613 10.5 9 10.5C8.72387 10.5 8.50001 10.2761 8.5 10V8H6C4.34315 8 3 6.65685 3 5C3 3.34315 4.34315 2 6 2H17ZM12.5 11.5C12.7761 11.5 13 11.7239 13 12V14.9287C13 17.1378 11.2091 18.9287 9 18.9287C7.54867 18.9287 6.27984 18.1549 5.5791 17H4.7998C3.52969 16.9999 2.50008 15.9703 2.5 14.7002C2.5 13.7613 3.26131 13 4.2002 13H4.25C4.51862 13 4.77254 13.0618 5 13.1699V12C5.00003 11.7239 5.22388 11.5 5.5 11.5H12.5ZM6 14.9287L6.00488 15.1094C6.02965 15.5274 6.14029 15.9216 6.31836 16.2754C6.81246 17.257 7.82826 17.9287 9 17.9287C10.6568 17.9287 12 16.5855 12 14.9287V12.5H6V14.9287ZM4.2002 14C3.8136 14 3.5 14.3136 3.5 14.7002C3.50008 15.418 4.08197 15.9999 4.7998 16H5.14648C5.06035 15.6896 5.01025 15.3645 5.00195 15.0293C5.00139 15.0196 5 15.0098 5 15V14.75C4.99997 14.3358 4.6642 14 4.25 14H4.2002ZM6 3C4.89543 3 4 3.89543 4 5C4 6.10457 4.89543 7 6 7H17C17.4834 7 17.9257 6.8291 18.2715 6.54395C18.7172 6.17632 19 5.62138 19 5C19 3.89543 18.1046 3 17 3H6Z" fill="currentColor"/>
</svg>
