<svg width="24" height="24" viewBox="0 0 24 24" fill="none" xmlns="http://www.w3.org/2000/svg">
<path fill-rule="evenodd" clip-rule="evenodd" d="M6.93137 6.79999C6.85759 6.79999 6.79779 6.85979 6.79779 6.93357V8.20073V15.8037V17.0708C6.79779 17.1446 6.85759 17.2044 6.93137 17.2044H8.8321C8.90588 17.2044 8.96568 17.1446 8.96568 17.0708V12.0022V6.93357C8.96568 6.85979 8.90588 6.79999 8.8321 6.79999H6.93137ZM9.96568 11.5022V6.93357C9.96568 6.30751 9.45816 5.79999 8.8321 5.79999H6.93137C6.30531 5.79999 5.79779 6.30751 5.79779 6.93357V7.70073H4.39705C4.0964 7.70073 3.80807 7.82016 3.59548 8.03275C3.3829 8.24533 3.26347 8.53366 3.26347 8.83431V11.5022H2.49631C2.22016 11.5022 1.99631 11.7261 1.99631 12.0022C1.99631 12.2783 2.22016 12.5022 2.49631 12.5022H3.26347V15.1701C3.26347 15.4707 3.3829 15.7591 3.59548 15.9717C3.80807 16.1843 4.0964 16.3037 4.39705 16.3037H5.79779V17.0708C5.79779 17.6969 6.30531 18.2044 6.93137 18.2044H8.8321C9.45816 18.2044 9.96568 17.6969 9.96568 17.0708V12.5022H14.0343V17.0708C14.0343 17.6969 14.5418 18.2044 15.1679 18.2044H17.0686C17.6947 18.2044 18.2022 17.6969 18.2022 17.0708V16.3037H19.603C19.9036 16.3037 20.1919 16.1843 20.4045 15.9717C20.6171 15.7591 20.7365 15.4707 20.7365 15.1701V12.5022H21.5037C21.7798 12.5022 22.0037 12.2783 22.0037 12.0022C22.0037 11.7261 21.7798 11.5022 21.5037 11.5022H20.7365V8.83431C20.7365 8.53366 20.6171 8.24533 20.4045 8.03275C20.1919 7.82016 19.9036 7.70073 19.603 7.70073H18.2022V6.93357C18.2022 6.30751 17.6947 5.79999 17.0686 5.79999H15.1679C14.5418 5.79999 14.0343 6.30751 14.0343 6.93357V11.5022H9.96568ZM15.0343 12.0022V17.0708C15.0343 17.1446 15.0941 17.2044 15.1679 17.2044H17.0686C17.1424 17.2044 17.2022 17.1446 17.2022 17.0708V15.8037V8.20073V6.93357C17.2022 6.85979 17.1424 6.79999 17.0686 6.79999H15.1679C15.0941 6.79999 15.0343 6.85979 15.0343 6.93357V12.0022ZM18.2022 8.70073V15.3037H19.603C19.6384 15.3037 19.6724 15.2896 19.6974 15.2646C19.7225 15.2395 19.7365 15.2055 19.7365 15.1701V12.0022V8.83431C19.7365 8.79888 19.7225 8.7649 19.6974 8.73985C19.6724 8.7148 19.6384 8.70073 19.603 8.70073H18.2022ZM5.79779 15.3037V8.70073H4.39705C4.36162 8.70073 4.32764 8.7148 4.30259 8.73985C4.27754 8.7649 4.26347 8.79888 4.26347 8.83431V12.0022V15.1701C4.26347 15.2055 4.27754 15.2395 4.30259 15.2646C4.32764 15.2896 4.36162 15.3037 4.39705 15.3037H5.79779Z" fill="currentColor"/>
</svg>
