<svg width="24" height="24" viewBox="0 0 24 24" fill="none" xmlns="http://www.w3.org/2000/svg">
<path d="M2.60692 15.8226C2.33716 15.7636 2.07061 15.9344 2.01156 16.2042C1.95252 16.4739 2.12333 16.7405 2.39308 16.7995L2.5 16.3111L2.60692 15.8226ZM21.1296 3.43962L20.6408 3.54511L20.6409 3.54541L21.1296 3.43962ZM20.5604 2.87042L20.4546 3.3591L20.4549 3.35916L20.5604 2.87042ZM7.19706 21.6068C7.25607 21.8766 7.52259 22.0475 7.79236 21.9885C8.06212 21.9294 8.23297 21.6629 8.17396 21.3932L7.68551 21.5L7.19706 21.6068ZM19.6698 13.8503C19.946 13.8465 20.1667 13.6195 20.1628 13.3434C20.1589 13.0673 19.9319 12.8466 19.6558 12.8504L19.6628 13.3504L19.6698 13.8503ZM11.1495 4.34287C11.1534 4.06675 10.9328 3.83974 10.6566 3.83583C10.3805 3.83192 10.1535 4.05258 10.1496 4.32869L10.6496 4.33578L11.1495 4.34287ZM2.5 16.3111L2.39308 16.7995C7.8051 17.9842 11.7793 17.9566 14.6856 17.162C17.608 16.3629 19.4315 14.7926 20.5246 12.9522C21.6089 11.1265 21.9537 9.07121 21.9955 7.3153C22.0374 5.55643 21.7762 4.0634 21.6183 3.33384L21.1296 3.43962L20.6409 3.54541C20.7887 4.22832 21.0352 5.63786 20.9958 7.29148C20.9563 8.94807 20.6307 10.8152 19.6648 12.4416C18.7075 14.0534 17.1007 15.4649 14.4219 16.1974C11.7269 16.9342 7.92897 16.9876 2.60692 15.8226L2.5 16.3111ZM21.1296 3.43962L21.6183 3.33413C21.5679 3.10061 21.4513 2.88657 21.2823 2.71765L20.9288 3.0712L20.5752 3.42476C20.6082 3.45774 20.631 3.49953 20.6408 3.54511L21.1296 3.43962ZM20.9288 3.0712L21.2823 2.71765C21.1134 2.54873 20.8994 2.43208 20.6659 2.38167L20.5604 2.87042L20.4549 3.35916C20.5005 3.369 20.5423 3.39178 20.5752 3.42476L20.9288 3.0712ZM20.5604 2.87042L20.6662 2.38174C19.9366 2.22381 18.4435 1.96258 16.6846 2.00449C14.9286 2.04634 12.8732 2.3911 11.0472 3.47543C9.20669 4.56842 7.63598 6.39191 6.83648 9.31432C6.04138 12.2206 6.01318 16.1948 7.19706 21.6068L7.68551 21.5L8.17396 21.3932C7.00976 16.0711 7.06376 12.2731 7.80103 9.5782C8.5339 6.89937 9.94573 5.29257 11.5578 4.33525C13.1845 3.36925 15.0517 3.04368 16.7084 3.00421C18.3621 2.9648 19.7717 3.21127 20.4546 3.3591L20.5604 2.87042ZM16.2046 6.31386H15.7046C15.7046 6.44685 15.5968 6.55465 15.4638 6.55465V7.05465V7.55465C16.149 7.55465 16.7046 6.99913 16.7046 6.31386H16.2046ZM15.4638 7.05465V6.55465C15.3308 6.55465 15.223 6.44685 15.223 6.31386H14.723H14.223C14.223 6.99913 14.7785 7.55465 15.4638 7.55465V7.05465ZM14.723 6.31386H15.223C15.223 6.18088 15.3308 6.07308 15.4638 6.07308V5.57308V5.07308C14.7785 5.07308 14.223 5.6286 14.223 6.31386H14.723ZM15.4638 5.57308V6.07308C15.5968 6.07308 15.7046 6.18088 15.7046 6.31386H16.2046H16.7046C16.7046 5.6286 16.149 5.07308 15.4638 5.07308V5.57308ZM19.6628 13.3504L19.6558 12.8504C18.5343 12.8662 17.421 12.6568 16.3818 12.2349L16.1937 12.6981L16.0056 13.1614C17.1686 13.6337 18.4146 13.8679 19.6698 13.8503L19.6628 13.3504ZM16.1937 12.6981L16.3818 12.2349C15.3426 11.8129 14.3985 11.1868 13.6054 10.3936L13.2519 10.7471L12.8983 11.1007C13.7859 11.9884 14.8425 12.6891 16.0056 13.1614L16.1937 12.6981ZM13.2519 10.7471L13.6054 10.3936C12.8124 9.60043 12.1864 8.65629 11.7646 7.617L11.3013 7.80504L10.838 7.99309C11.3101 9.15626 12.0107 10.2129 12.8983 11.1007L13.2519 10.7471ZM11.3013 7.80504L11.7646 7.617C11.3428 6.57771 11.1336 5.46439 11.1495 4.34287L10.6496 4.33578L10.1496 4.32869C10.1318 5.5839 10.3659 6.82992 10.838 7.99309L11.3013 7.80504Z" fill="currentColor"/>
</svg>
