<svg width="24" height="24" viewBox="0 0 24 24" fill="none" xmlns="http://www.w3.org/2000/svg">
<path d="M11.7127 18.6138L11.569 19.0927V19.0927L11.7127 18.6138ZM12.2873 18.6138L12.431 19.0927V19.0927L12.2873 18.6138ZM12.3162 21.8946L12.4743 22.3689V22.3689L12.3162 21.8946ZM11.6838 21.8946L11.5257 22.3689V22.3689L11.6838 21.8946ZM11.7831 2.04821L11.8915 2.5363L11.7831 2.04821ZM12.2169 2.04821L12.3254 1.56011L12.2169 2.04821ZM3.68377 19.2279L3.84189 18.7536H3.84189L3.68377 19.2279ZM20.3162 19.2279L20.1581 18.7536V18.7536L20.3162 19.2279ZM20.2169 3.82598L20.3254 3.33789V3.33789L20.2169 3.82598ZM3.78307 3.82598L3.6746 3.33789L3.78307 3.82598ZM11.7831 5.95179L11.6746 6.43989V6.43989L11.7831 5.95179ZM12.2169 5.95179L12.3254 6.43989V6.43989L12.2169 5.95179ZM11.7524 9.23672L11.8762 8.75229V8.75229L11.7524 9.23672ZM12.2476 9.23672L12.3714 9.72116H12.3714L12.2476 9.23672ZM14.1515 10.9621L14.0302 10.4771V10.4771L14.1515 10.9621ZM16.7515 10.3121L16.8728 10.7972H16.8728L16.7515 10.3121ZM20.6819 4.07069L21.023 3.70509V3.70509L20.6819 4.07069ZM3.78307 3.82598L3.89153 4.31408L11.8915 2.5363L11.7831 2.04821L11.6746 1.56011L3.6746 3.33789L3.78307 3.82598ZM12.2169 2.04821L12.1085 2.5363L20.1085 4.31408L20.2169 3.82598L20.3254 3.33789L12.3254 1.56011L12.2169 2.04821ZM20.3162 19.2279L20.1581 18.7536L12.1581 21.4202L12.3162 21.8946L12.4743 22.3689L20.4743 19.7023L20.3162 19.2279ZM11.6838 21.8946L11.8419 21.4202L3.84189 18.7536L3.68377 19.2279L3.52566 19.7023L11.5257 22.3689L11.6838 21.8946ZM3 7H3.5V4.80217H3H2.5V7H3ZM21 4.80217H20.5V7H21H21.5V4.80217H21ZM3 18.2792H3.5V16H3H2.5V18.2792H3ZM3 16H3.5V7H3H2.5V16H3ZM21 7H20.5V16H21H21.5V7H21ZM21 16H20.5V18.2792H21H21.5V16H21ZM3 16L2.85633 16.4789L11.569 19.0927L11.7127 18.6138L11.8563 18.1349L3.14367 15.5211L3 16ZM12.2873 18.6138L12.431 19.0927L21.1437 16.4789L21 16L20.8563 15.5211L12.1437 18.1349L12.2873 18.6138ZM11.7127 18.6138L11.569 19.0927C11.8501 19.1771 12.1499 19.1771 12.431 19.0927L12.2873 18.6138L12.1437 18.1349C12.05 18.163 11.95 18.163 11.8563 18.1349L11.7127 18.6138ZM12.3162 21.8946L12.1581 21.4202C12.0555 21.4545 11.9445 21.4545 11.8419 21.4202L11.6838 21.8946L11.5257 22.3689C11.8336 22.4716 12.1664 22.4716 12.4743 22.3689L12.3162 21.8946ZM11.7831 2.04821L11.8915 2.5363C11.963 2.52042 12.037 2.52042 12.1085 2.5363L12.2169 2.04821L12.3254 1.56011C12.1111 1.51249 11.8889 1.51249 11.6746 1.56011L11.7831 2.04821ZM3.68377 19.2279L3.84189 18.7536C3.63771 18.6855 3.5 18.4945 3.5 18.2792H3H2.5C2.5 18.9249 2.91314 19.4981 3.52566 19.7023L3.68377 19.2279ZM20.3162 19.2279L20.4743 19.7023C21.0869 19.4981 21.5 18.9249 21.5 18.2792H21H20.5C20.5 18.4945 20.3623 18.6855 20.1581 18.7536L20.3162 19.2279ZM11.7831 5.95179L11.6746 6.43989C11.8889 6.48751 12.1111 6.48751 12.3254 6.43989L12.2169 5.95179L12.1085 5.4637C12.037 5.47957 11.963 5.47957 11.8915 5.4637L11.7831 5.95179ZM3 7L2.8762 7.48443L11.6286 9.72116L11.7524 9.23672L11.8762 8.75229L3.1238 6.51557L3 7ZM12.2476 9.23672L12.3714 9.72116L21.1238 7.48443L21 7L20.8762 6.51557L12.1238 8.75229L12.2476 9.23672ZM11.7524 9.23672L11.6286 9.72116C11.8723 9.78343 12.1277 9.78343 12.3714 9.72116L12.2476 9.23672L12.1238 8.75229C12.0426 8.77305 11.9574 8.77305 11.8762 8.75229L11.7524 9.23672ZM14 18.1H14.5V11.1562H14H13.5V18.1H14ZM14.1515 10.9621L14.2728 11.4472L16.8728 10.7972L16.7515 10.3121L16.6302 9.82705L14.0302 10.4771L14.1515 10.9621ZM17 10.5062H16.5V17.2H17H17.5V10.5062H17ZM16.7515 10.3121L16.8728 10.7972C16.6834 10.8445 16.5 10.7013 16.5 10.5062H17H17.5C17.5 10.0508 17.072 9.7166 16.6302 9.82705L16.7515 10.3121ZM14 11.1562H14.5C14.5 11.2938 14.4063 11.4138 14.2728 11.4472L14.1515 10.9621L14.0302 10.4771C13.7186 10.555 13.5 10.8349 13.5 11.1562H14ZM12.2169 5.95179L12.3254 6.43989L20.7904 4.55878L20.6819 4.07069L20.5734 3.58259L12.1085 5.4637L12.2169 5.95179ZM20.2169 3.82598L20.1085 4.31408C20.1983 4.33404 20.2774 4.37708 20.3408 4.43628L20.6819 4.07069L21.023 3.70509C20.8324 3.52726 20.5937 3.39752 20.3254 3.33789L20.2169 3.82598ZM20.6819 4.07069L20.3408 4.43628C20.4401 4.52888 20.5 4.65973 20.5 4.80217H21H21.5C21.5 4.37412 21.3188 3.98105 21.023 3.70509L20.6819 4.07069ZM3.31809 4.07069L3.20963 4.55878L11.6746 6.43989L11.7831 5.95179L11.8915 5.4637L3.42656 3.58259L3.31809 4.07069ZM3.78307 3.82598L3.6746 3.33789C3.40627 3.39752 3.16762 3.52726 2.97701 3.70509L3.31809 4.07069L3.65918 4.43628C3.72263 4.37708 3.8017 4.33404 3.89153 4.31408L3.78307 3.82598ZM3.31809 4.07069L2.97701 3.70509C2.68122 3.98105 2.5 4.37412 2.5 4.80217H3H3.5C3.5 4.65973 3.55993 4.52888 3.65918 4.43628L3.31809 4.07069Z" fill="currentColor"/>
</svg>
