<svg width="24" height="24" viewBox="0 0 24 24" fill="none" xmlns="http://www.w3.org/2000/svg">
<path d="M11.9998 8.87549C14.347 8.87549 16.2498 10.7783 16.2498 13.1255C16.2496 14.6658 15.4298 16.014 14.2029 16.7593C14.6363 16.9153 15.0539 17.1183 15.448 17.3647C16.4816 18.0112 17.3128 18.9357 17.8464 20.0317C17.9668 20.2798 17.8638 20.5788 17.616 20.6997C17.3679 20.8204 17.068 20.7172 16.947 20.4692C16.4954 19.5417 15.7923 18.7594 14.9177 18.2124C14.0429 17.6654 13.0315 17.3755 11.9998 17.3755C10.9682 17.3756 9.95739 17.6655 9.08276 18.2124C8.2081 18.7594 7.50408 19.5417 7.05249 20.4692C6.93148 20.7171 6.6326 20.8204 6.38452 20.6997C6.13639 20.5789 6.03351 20.2799 6.15405 20.0317C6.68773 18.9356 7.51885 18.0112 8.55249 17.3647C8.9464 17.1184 9.36354 16.9153 9.79663 16.7593C8.56996 16.014 7.74993 14.6657 7.74976 13.1255C7.74976 10.7784 9.65267 8.87564 11.9998 8.87549ZM11.9998 9.87549C10.205 9.87564 8.74976 11.3307 8.74976 13.1255C8.75002 14.9201 10.2051 16.3753 11.9998 16.3755C13.7945 16.3755 15.2495 14.9202 15.2498 13.1255C15.2498 11.3306 13.7947 9.87549 11.9998 9.87549ZM4.5437 4.54736C5.17525 4.34205 5.85259 4.31986 6.49585 4.48486C7.13889 4.64992 7.7219 4.99518 8.17651 5.479C8.63098 5.96284 8.93857 6.56626 9.06323 7.21826C9.11474 7.48915 8.93754 7.75118 8.66675 7.80322C8.39568 7.85503 8.13287 7.67672 8.08081 7.40576C7.99174 6.94024 7.77246 6.50907 7.448 6.16357C7.12323 5.81794 6.70621 5.5715 6.24683 5.45361C5.78758 5.33584 5.30418 5.35108 4.85327 5.49756C4.40221 5.64421 4.00128 5.91626 3.69897 6.28174C3.3968 6.64716 3.20472 7.09157 3.14526 7.56201C3.08593 8.03247 3.16214 8.51087 3.36401 8.93994C3.56595 9.3688 3.8857 9.73177 4.28589 9.98584C4.63615 10.2081 5.03596 10.3392 5.448 10.3687L5.62573 10.3755L5.72632 10.3853C5.95389 10.4321 6.12476 10.6341 6.12476 10.8755C6.12426 11.1514 5.90067 11.3756 5.62476 11.3755C4.82921 11.3748 4.04436 11.5598 3.33276 11.9155C2.62119 12.2713 2.00203 12.7885 1.52515 13.4253C1.35962 13.6458 1.04582 13.691 0.824951 13.5259C0.604077 13.3605 0.559259 13.0467 0.724365 12.8257C1.29446 12.0644 2.03483 11.4463 2.8855 11.021C3.11486 10.9063 3.3509 10.8068 3.59155 10.7222C3.10517 10.3747 2.71423 9.90848 2.45874 9.36572C2.17611 8.76502 2.07 8.09566 2.15308 7.43701C2.23627 6.7784 2.50547 6.15664 2.92847 5.64502C3.35169 5.13333 3.91221 4.75269 4.5437 4.54736ZM17.5046 4.48389C18.1478 4.3189 18.8253 4.34117 19.4568 4.54639C20.0882 4.75171 20.6488 5.13243 21.072 5.64404C21.4951 6.15572 21.7642 6.7773 21.8474 7.43604C21.9306 8.09484 21.8244 8.76388 21.5417 9.36475C21.286 9.90824 20.8933 10.3735 20.406 10.7212C20.6474 10.806 20.8839 10.906 21.114 11.021C21.9647 11.4463 22.705 12.0644 23.2751 12.8257C23.4403 13.0466 23.3953 13.3594 23.1746 13.5249C22.9537 13.69 22.6399 13.6459 22.4744 13.4253C21.9974 12.7885 21.3784 12.2713 20.6667 11.9155C20.0441 11.6043 19.3655 11.4231 18.6726 11.3833L18.3748 11.3755C18.3403 11.3755 18.3066 11.3724 18.2742 11.3657C18.1766 11.3457 18.0891 11.2969 18.0212 11.229C17.9309 11.1385 17.8749 11.0134 17.8748 10.8755C17.8748 10.8062 17.8893 10.7402 17.9148 10.6802C17.9908 10.5011 18.168 10.3758 18.3748 10.3755C18.8491 10.3754 19.3141 10.24 19.7146 9.98584C20.115 9.73164 20.4345 9.36811 20.6365 8.93896C20.8384 8.50974 20.9147 8.03165 20.8552 7.56104C20.7957 7.09053 20.6038 6.64621 20.3015 6.28076C19.9992 5.91528 19.5983 5.64322 19.1472 5.49658C18.6962 5.35008 18.212 5.33477 17.7527 5.45264C17.2935 5.57057 16.8772 5.81711 16.5525 6.1626C16.2277 6.50834 16.0077 6.93983 15.9187 7.40576C15.8668 7.6769 15.6049 7.85496 15.3337 7.80322C15.0627 7.75131 14.8847 7.48932 14.9363 7.21826C15.0609 6.566 15.3684 5.96205 15.823 5.47803C16.2777 4.99403 16.8614 4.64898 17.5046 4.48389Z" fill="currentColor"/>
</svg>
