<svg width="24" height="24" viewBox="0 0 24 24" fill="none" xmlns="http://www.w3.org/2000/svg">
<path d="M16.5 1.75C16.7761 1.75 17 1.97386 17 2.25V3.25H19.5C20.1904 3.25 20.75 3.80964 20.75 4.5V19.5C20.75 20.1904 20.1904 20.75 19.5 20.75H4.5C3.80964 20.75 3.25 20.1904 3.25 19.5V4.5C3.25 3.80964 3.80964 3.25 4.5 3.25H7V2.25C7 1.97386 7.22386 1.75 7.5 1.75C7.77614 1.75 8 1.97386 8 2.25V3.25H16V2.25C16 1.97386 16.2239 1.75 16.5 1.75ZM4.5 4.25C4.36193 4.25 4.25 4.36193 4.25 4.5V19.5C4.25 19.6381 4.36193 19.75 4.5 19.75H19.5C19.6381 19.75 19.75 19.6381 19.75 19.5V4.5C19.75 4.36193 19.6381 4.25 19.5 4.25H17V5.25C17 5.52614 16.7761 5.75 16.5 5.75C16.2239 5.75 16 5.52614 16 5.25V4.25H8V5.25C8 5.52614 7.77614 5.75 7.5 5.75C7.22386 5.75 7 5.52614 7 5.25V4.25H4.5ZM12.3965 8.27148C12.5917 8.07622 12.9083 8.07622 13.1035 8.27148L16.4785 11.6465C16.6738 11.8417 16.6738 12.1583 16.4785 12.3535L13.1035 15.7285C12.9083 15.9238 12.5917 15.9238 12.3965 15.7285C12.2012 15.5333 12.2012 15.2167 12.3965 15.0215L14.918 12.5H7.875C7.59886 12.5 7.375 12.2761 7.375 12C7.375 11.7239 7.59886 11.5 7.875 11.5H14.918L12.3965 8.97852C12.2012 8.78325 12.2012 8.46675 12.3965 8.27148Z" fill="#1C1C1C"/>
</svg>
