<svg width="24" height="24" viewBox="0 0 24 24" fill="none" xmlns="http://www.w3.org/2000/svg">
<path d="M12.0001 2.5C17.2468 2.5 21.5001 6.75329 21.5001 12C21.5001 17.2467 17.2468 21.5 12.0001 21.5C6.75336 21.5 2.50006 17.2467 2.50006 12C2.50006 6.75329 6.75336 2.5 12.0001 2.5ZM12.0001 3.5C7.30564 3.5 3.50006 7.30558 3.50006 12C3.50006 16.6944 7.30564 20.5 12.0001 20.5C16.6945 20.5 20.5001 16.6944 20.5001 12C20.5001 7.30558 16.6945 3.5 12.0001 3.5ZM12.0001 16.125C12.4142 16.125 12.7501 16.4608 12.7501 16.875C12.7501 17.2892 12.4142 17.625 12.0001 17.625C11.5858 17.625 11.2501 17.2892 11.2501 16.875C11.2501 16.4608 11.5858 16.125 12.0001 16.125ZM10.8038 7.23926C11.3747 7.00278 12.0034 6.94006 12.6094 7.06055C13.2156 7.18115 13.773 7.47901 14.21 7.91602C14.6469 8.35301 14.9449 8.91054 15.0655 9.5166C15.1858 10.1225 15.1232 10.7515 14.8868 11.3223C14.6502 11.8929 14.25 12.3814 13.7364 12.7246C13.3625 12.9744 12.9401 13.1376 12.5001 13.209V13.501C12.4998 13.7769 12.276 14.0009 12.0001 14.001C11.7241 14.001 11.5003 13.7769 11.5001 13.501V12.751C11.5001 12.6185 11.5529 12.4912 11.6465 12.3975C11.7403 12.3037 11.8675 12.251 12.0001 12.251C12.4203 12.251 12.8313 12.126 13.1807 11.8926C13.5299 11.6592 13.8021 11.3274 13.963 10.9395C14.1237 10.5513 14.1659 10.123 14.084 9.71094C14.002 9.29905 13.7999 8.92007 13.503 8.62305C13.206 8.32602 12.8271 8.12407 12.4151 8.04199C12.0029 7.96 11.5749 8.00225 11.1866 8.16309C10.7986 8.32392 10.4669 8.59609 10.2335 8.94531C10.0001 9.2947 9.87506 9.70582 9.87506 10.126C9.8748 10.4019 9.65101 10.6259 9.37506 10.626C9.09908 10.626 8.87532 10.4019 8.87506 10.126C8.87506 9.50804 9.05819 8.90348 9.40143 8.38965C9.74469 7.87593 10.233 7.47581 10.8038 7.23926Z" fill="#333333"/>
</svg>
