<svg preserveAspectRatio="none" width="100%" height="100%" overflow="visible" style="display: block;" viewBox="0 0 10.7755 12" fill="none" xmlns="http://www.w3.org/2000/svg">
<g id="Saudi_Riyal_Symbol 1" clip-path="url(#clip0_0_12726)">
<path id="Vector" d="M6.70793 10.6305C6.51564 11.0553 6.38854 11.5163 6.33984 11.9998L10.409 11.1379C10.6013 10.7132 10.7283 10.252 10.7771 9.76855L6.70793 10.6305Z" fill="var(--fill-0, #333333)"/>
<path id="Vector_2" d="M10.4074 8.55594C10.5997 8.1312 10.7268 7.67007 10.7755 7.18659L7.60576 7.85833V6.56701L10.4073 5.97378C10.5996 5.54904 10.7267 5.08791 10.7754 4.60443L7.60566 5.27559V0.631619C7.11996 0.90335 6.68861 1.26505 6.33797 1.6917V5.54417L5.07028 5.81265V0C4.58458 0.271635 4.15323 0.633434 3.80259 1.06008V6.08104L0.966128 6.68162C0.773842 7.10636 0.646642 7.56749 0.597851 8.05097L3.80259 7.37236V8.99854L0.368085 9.72577C0.175799 10.1505 0.0486946 10.6116 0 11.0951L3.59497 10.3339C3.88761 10.2732 4.13914 10.1008 4.30267 9.86359L4.96196 8.88966C5.03041 8.7889 5.07028 8.66721 5.07028 8.53636V7.10388L6.33797 6.83539V9.41803L10.4074 8.55594Z" fill="var(--fill-0, #333333)"/>
</g>
<defs>
<clipPath id="clip0_0_12726">
<rect width="10.7755" height="12" fill="white"/>
</clipPath>
</defs>
</svg>
