<svg width="40" height="40" viewBox="0 0 40 40" fill="none" xmlns="http://www.w3.org/2000/svg">
<g clip-path="url(#clip0_29_4907)">
<rect width="40" height="40" fill="white"/>
<path d="M16.7605 19.8979C16.7605 20.0409 16.8305 20.1124 16.9706 20.1839C18.3714 21.6135 19.8422 23.1146 21.243 24.5442C22.0835 25.402 22.6438 26.4027 23.1341 27.4749C23.4843 28.2612 23.8345 29.119 24.0446 29.9768C24.1147 30.1912 24.1147 30.4771 24.1847 30.7631C24.3248 31.1205 24.3248 31.5493 24.3948 31.9067C24.4649 32.4071 24.5349 32.9075 24.5349 33.4079C24.5349 33.8367 24.5349 34.1941 24.5349 34.623V34.6945C24.5349 34.766 24.5349 34.909 24.4649 34.9804C24.3248 35.0519 24.2548 34.909 24.1847 34.8375C23.5544 34.1941 22.854 33.4793 22.2236 32.836C20.7528 31.3349 19.2819 29.8338 17.8111 28.3327C16.7605 27.2605 15.7099 26.1168 14.5892 25.0446C12.9783 23.4005 11.4374 21.8279 9.82648 20.1839C9.75644 20.1124 9.54632 20.0409 9.6864 19.8979C9.89652 19.8265 10.2467 19.755 10.5269 19.755C11.6475 19.612 12.8382 19.612 13.9589 19.6835C14.3791 19.6835 14.7993 19.6835 15.1495 19.755C15.7099 19.755 16.2001 19.8265 16.7605 19.8979Z" fill="url(#paint0_linear_29_4907)"/>
<path d="M16.76 19.8977C16.2698 19.8262 15.7094 19.7547 15.2192 19.6832C14.7989 19.6117 14.3787 19.6117 14.0285 19.6117C12.8378 19.6117 11.7171 19.5403 10.5265 19.7547C10.1763 19.8262 9.89609 19.8262 9.54589 19.9692C9.47585 19.8977 9.54589 19.8977 9.54589 19.8977C9.89609 19.5403 10.3163 19.1114 10.6665 18.754C11.0167 18.3966 11.3669 18.0392 11.7171 17.7532C12.0673 17.3958 12.4175 16.9669 12.8378 16.6095C13.0479 16.3951 13.258 16.1807 13.4681 15.9662C14.0285 15.3944 14.5888 14.8225 15.0791 14.2507C15.8495 13.4644 16.62 12.6781 17.4604 11.8203C18.7912 10.4622 20.122 9.10403 21.4527 7.74589C22.2932 6.88812 23.1337 6.03034 23.9742 5.17257L24.0442 5.10109C24.1143 5.02961 24.1843 4.95813 24.2543 5.02961C24.3244 5.02961 24.3944 5.17257 24.3944 5.24405C24.3944 5.45849 24.3944 5.74442 24.3944 5.95886C24.3944 6.67367 24.3944 7.38848 24.3244 8.10329C24.2543 8.8181 24.1143 9.46143 23.9742 10.1048C23.7641 10.9625 23.4839 11.7488 23.1337 12.5351C22.5033 13.9647 21.5928 15.1084 20.4722 16.1807C19.2815 17.3958 18.0908 18.611 16.9001 19.8262C16.8301 19.8262 16.76 19.8262 16.76 19.8977Z" fill="url(#paint1_linear_29_4907)"/>
<path d="M28.8076 19.8262C28.8776 19.8262 28.8776 19.8977 28.9477 19.8977C29.0177 19.9691 29.0177 20.0406 28.9477 20.1121C28.7376 20.3265 28.4574 20.541 28.2473 20.8269C27.827 21.2558 27.4068 21.6847 26.9865 22.1136C26.6363 22.471 26.2861 22.8284 25.8659 23.2573C25.6558 23.4717 25.5157 23.4717 25.3056 23.2573C24.325 22.2565 23.2744 21.2558 22.2939 20.1836C22.2238 20.1121 22.0837 19.9691 22.2939 19.8977C22.7841 19.9691 23.2744 19.7547 23.7647 19.6117C24.255 19.4688 24.7453 19.3258 25.2355 19.1829C26.2161 18.9684 27.1967 18.9684 28.1072 19.3973C28.3173 19.4688 28.4574 19.6117 28.6675 19.6832C28.7376 19.8262 28.7376 19.8262 28.8076 19.8262Z" fill="url(#paint2_linear_29_4907)"/>
<path d="M28.7363 19.7545C28.5262 19.683 28.3861 19.5401 28.176 19.4686C27.2655 19.0397 26.2849 19.0397 25.3043 19.2542C24.8141 19.3971 24.3238 19.5401 23.8335 19.683C23.3432 19.826 22.8529 19.969 22.3626 19.969C22.5728 19.683 22.7829 19.4686 23.0631 19.2542C23.8335 18.3964 24.674 17.6101 25.5145 16.7523C25.7246 16.5379 25.7246 16.5379 25.8647 16.7523C26.7752 17.7531 27.6857 18.6823 28.6663 19.6116C28.6663 19.683 28.7363 19.683 28.7363 19.7545Z" fill="url(#paint3_linear_29_4907)"/>
<path d="M28.8069 19.8261C28.8069 19.8261 28.7369 19.8261 28.7369 19.7546C28.7369 19.7546 28.7369 19.8261 28.8069 19.8261Z" fill="#B5CA30"/>
<circle cx="20.0002" cy="20" r="19.5" stroke="#D8DCDE"/>
</g>
<defs>
<linearGradient id="paint0_linear_29_4907" x1="9.54414" y1="27.2867" x2="24.4356" y2="27.2867" gradientUnits="userSpaceOnUse">
<stop stop-color="#00AACB"/>
<stop offset="0.2524" stop-color="#00A7C8"/>
<stop offset="0.4552" stop-color="#009EBE"/>
<stop offset="0.6406" stop-color="#008EAD"/>
<stop offset="0.8158" stop-color="#017895"/>
<stop offset="0.9823" stop-color="#015C77"/>
<stop offset="1" stop-color="#015973"/>
</linearGradient>
<linearGradient id="paint1_linear_29_4907" x1="9.55752" y1="12.4406" x2="24.406" y2="12.4406" gradientUnits="userSpaceOnUse">
<stop stop-color="#D5DD26"/>
<stop offset="0.2404" stop-color="#D2DB27"/>
<stop offset="0.4335" stop-color="#C8D429"/>
<stop offset="0.6101" stop-color="#B7C82E"/>
<stop offset="0.7769" stop-color="#9FB834"/>
<stop offset="0.9355" stop-color="#81A33B"/>
<stop offset="1" stop-color="#72993F"/>
</linearGradient>
<linearGradient id="paint2_linear_29_4907" x1="24.1611" y1="22.5949" x2="26.5717" y2="18.5038" gradientUnits="userSpaceOnUse">
<stop stop-color="#00AACB"/>
<stop offset="0.1857" stop-color="#00A2C2"/>
<stop offset="0.4884" stop-color="#008BAA"/>
<stop offset="0.8684" stop-color="#016782"/>
<stop offset="1" stop-color="#015973"/>
</linearGradient>
<linearGradient id="paint3_linear_29_4907" x1="22.3264" y1="18.2524" x2="28.7224" y2="18.2524" gradientUnits="userSpaceOnUse">
<stop stop-color="#72993F"/>
<stop offset="0.0645186" stop-color="#81A33B"/>
<stop offset="0.2231" stop-color="#9FB834"/>
<stop offset="0.3899" stop-color="#B7C82E"/>
<stop offset="0.5665" stop-color="#C8D429"/>
<stop offset="0.7596" stop-color="#D2DB27"/>
<stop offset="1" stop-color="#D5DD26"/>
</linearGradient>
<clipPath id="clip0_29_4907">
<rect width="40" height="40" fill="white"/>
</clipPath>
</defs>
</svg>
