<svg width="40" height="40" viewBox="0 0 40 40" fill="none" xmlns="http://www.w3.org/2000/svg">
<rect width="40" height="40" fill="#006936"/>
<path opacity="0.988" d="M35.7614 14.9762C35.9504 14.9355 36.0272 15.0084 35.9909 15.193C32.6127 18.9058 29.2453 22.6262 25.8883 26.3541C27.3208 27.3807 28.9215 27.9322 30.6901 28.0094C30.1178 28.1623 29.5376 28.2878 28.9547 28.3893C27.7721 28.5028 26.6606 28.2769 25.6188 27.7106C25.4114 27.5879 25.2022 27.467 24.9948 27.3444C23.4836 29.0085 21.9737 30.6729 20.4655 32.3356L20.4381 32.1852C20.532 29.6673 20.6361 27.1494 20.7497 24.6315C22.1534 25.4931 23.5515 26.3668 24.9401 27.2496C24.9673 27.2677 24.9949 27.2677 25.0221 27.2496C25.278 26.9559 25.5393 26.6646 25.8073 26.3815C24.2781 25.5185 22.7688 24.6281 21.279 23.7106C23.0097 22.6643 24.8268 21.792 26.7301 21.0924C27.4084 20.8486 28.1049 20.6762 28.818 20.5778C29.557 20.4839 30.2976 20.4201 31.0426 20.3883C29.2483 20.0885 27.4858 20.214 25.7536 20.7682C24.0547 21.333 22.4099 22.0233 20.817 22.8424C20.8488 21.2147 20.908 19.5883 20.9928 17.9606C25.9171 16.9627 30.8402 15.968 35.7614 14.9762ZM4.0524 14.9762C9.04323 15.9513 14.0296 16.9456 19.0114 17.9586C19.0886 19.5895 19.1463 21.2166 19.1872 22.8414C17.6214 22.0343 16.0029 21.3508 14.3327 20.7936C12.5762 20.2182 10.7862 20.082 8.96158 20.3864C10.0488 20.4182 11.1256 20.5452 12.1901 20.7662C13.4817 21.1327 14.7295 21.6132 15.9333 22.2037C16.8811 22.6777 17.8126 23.1802 18.7272 23.7086C17.2403 24.6292 15.7287 25.5149 14.1979 26.3658C14.4447 26.6717 14.7069 26.966 14.984 27.2477C15.0111 27.2656 15.038 27.2656 15.0651 27.2477C16.4476 26.3543 17.8442 25.4805 19.2555 24.6295C19.3721 27.1992 19.467 29.7675 19.5397 32.3326C18.0316 30.6655 16.5179 29.0025 14.9977 27.3414C14.5313 27.6443 14.0371 27.9029 13.5192 28.1149C12.5017 28.4434 11.4722 28.498 10.4274 28.277C10.058 28.1816 9.68697 28.0928 9.31607 28.0065C11.0816 27.9231 12.6809 27.3718 14.1178 26.3512C10.741 22.6382 7.37143 18.9172 4.01431 15.1891C3.98724 15.1105 4.00104 15.0382 4.0524 14.9762ZM19.9753 8.92639C20.222 9.25339 20.3705 9.62295 20.4235 10.0377C20.8701 9.65336 21.3805 9.53531 21.9557 9.68518C21.6892 9.81692 21.4709 10.0062 21.3044 10.2545C23.2108 10.0546 24.7028 10.7418 25.7809 12.3151C25.7673 12.3423 25.7489 12.3469 25.7262 12.3287C24.639 11.5474 23.427 11.2128 22.0915 11.3248C24.0947 11.8169 25.2567 13.0785 25.5778 15.109C24.9161 14.3201 24.1708 13.6299 23.3395 13.0348C23.0989 12.8698 22.8461 12.7335 22.5797 12.6276C23.4881 13.7541 23.8275 15.0325 23.5973 16.4664C23.2369 15.1945 22.558 14.1269 21.5631 13.2653C21.7539 14.2327 21.7906 15.2093 21.6725 16.1949C21.6377 16.4811 21.5785 16.7617 21.4967 17.0358C21.2772 16.1454 21.0104 15.267 20.6969 14.4039C20.5243 13.9421 20.2901 13.5162 19.9919 13.1285C19.6935 13.5359 19.4584 13.9786 19.2858 14.4586C18.98 15.3049 18.7162 16.1652 18.4997 17.0358C18.1877 15.776 18.1658 14.519 18.4323 13.2653C17.4374 14.1238 16.7631 15.1899 16.4118 16.4664C16.1695 15.031 16.5088 13.7511 17.4294 12.6276C16.945 12.8486 16.4922 13.1299 16.0729 13.4674C15.4764 13.9549 14.934 14.4988 14.445 15.0953C14.6586 13.3602 15.5992 12.1673 17.2663 11.5162C17.4781 11.4361 17.6943 11.3737 17.9167 11.3268C17.2732 11.2481 16.6405 11.3027 16.0182 11.4889C15.3747 11.6797 14.7778 11.9639 14.2282 12.3424C14.7733 11.4597 15.5415 10.8316 16.5348 10.4576C17.2449 10.2336 17.9689 10.1698 18.7047 10.2682C18.5382 10.0184 18.3214 9.82298 18.0534 9.68518C18.615 9.5414 19.1223 9.64867 19.5719 10.0104C19.6431 9.62588 19.7785 9.26397 19.9753 8.92639Z" fill="white"/>
</svg>
