<svg width="36" height="36" viewBox="0 0 36 36" fill="none" xmlns="http://www.w3.org/2000/svg">
<circle cx="18" cy="18" r="18" fill="white"/>
<path fill-rule="evenodd" clip-rule="evenodd" d="M27.6923 14.9673V14.9563C27.6551 14.9637 25.6507 16.1272 23.0576 17.714V22.4438C23.0576 22.5453 22.9807 22.6274 22.8858 22.6274H15.0472C11.3676 24.8875 8.30786 26.7691 8.30786 26.7691H27.374C27.5515 26.7691 27.6942 26.6153 27.6923 26.4256V14.9673Z" fill="#0C9AB0"/>
<path fill-rule="evenodd" clip-rule="evenodd" d="M27.3738 10.6936H13.4343L18.7693 14.8354H22.8856C22.9805 14.8354 23.0574 14.9174 23.0574 15.019V17.714C25.6505 16.1272 27.6549 14.9639 27.6922 14.9563V11.0338C27.6922 10.8459 27.5498 10.6936 27.3738 10.6936Z" fill="#EF4550"/>
<path fill-rule="evenodd" clip-rule="evenodd" d="M12.9456 22.4438V15.019C12.9456 14.9176 13.0224 14.8354 13.1173 14.8354H18.7694L13.4344 10.6936H8.62599C8.45018 10.6936 8.30762 10.8459 8.30762 11.0338V26.7691C8.30762 26.7691 11.3675 24.8877 15.0471 22.6274H13.1173C13.0224 22.6274 12.9456 22.5453 12.9456 22.4438Z" fill="#003143"/>
<path fill-rule="evenodd" clip-rule="evenodd" d="M16.4441 9.0476C16.4441 8.94585 16.5212 8.86345 16.6166 8.86345H19.3905C19.4858 8.86345 19.5629 8.94585 19.5629 9.0476V10.2016H20.9752V7.72435C20.9752 7.53649 20.833 7.38452 20.6572 7.38452H15.3426C15.1668 7.38452 15.0244 7.53649 15.0244 7.72435V10.2006H16.4441V9.0476Z" fill="#EF4550"/>
</svg>
