<svg width="48" height="48" viewBox="0 0 48 48" fill="none" xmlns="http://www.w3.org/2000/svg">
<path d="M40.9816 32.3377C42.0815 29.9256 42.71 27.1918 42.71 24.2972C42.71 13.6033 34.3038 5 23.855 5C13.4062 5 5 13.6033 5 24.2972C5 32.9006 10.4994 40.2174 18.1199 42.71C18.9841 39.735 21.6553 37.6445 24.7978 37.6445C25.8976 37.6445 26.9189 37.8857 27.7831 38.3681C27.9403 34.0262 31.4756 30.4884 35.7965 30.4884C37.7606 30.408 39.5675 31.1317 40.9816 32.3377Z" fill="#E8F5F7"/>
<path d="M22.2 35.8283C22.1 35.8283 20.2 30.837 20.2 30.837" stroke="#0C8395" stroke-width="0.9" stroke-miterlimit="10" stroke-linecap="round" stroke-linejoin="round"/>
<path d="M25.8 35.8283C25.9 35.8283 27.8 30.837 27.8 30.837" stroke="#0C8395" stroke-width="0.9" stroke-miterlimit="10" stroke-linecap="round" stroke-linejoin="round"/>
<path d="M24 5C17 5 11.2 10.3827 11.2 16.9399C11.2 22.1269 15.2 26.9224 18.6 30.0542V31.8158C18.6 32.1094 18.8 32.3051 19.1 32.3051H28.9C29.1999 32.3051 29.4 32.1094 29.4 31.8158V30.0542C32.7999 26.9224 36.8 22.1269 36.8 16.9399C36.8 10.3827 31 5 24 5Z" fill="white" stroke="#0C8395" stroke-width="0.9" stroke-miterlimit="10" stroke-linecap="round" stroke-linejoin="round"/>
<path d="M29 30.3575H19V32.3575H29V30.3575Z" fill="#BDE2E8"/>
<path d="M18.6001 30.0542V31.8158C18.6001 32.1094 18.8001 32.3052 19.1001 32.3052H28.9001C29.2001 32.3052 29.4001 32.1094 29.4001 31.8158V30.0542" stroke="#0C8395" stroke-width="0.9" stroke-miterlimit="10" stroke-linecap="round" stroke-linejoin="round"/>
<path d="M29.7999 14.1017C29.9999 15.374 30.0999 16.7441 30.0999 18.1143C30.0999 23.3991 28.5999 27.901 26.3999 29.8584" fill="white"/>
<path d="M29.7999 14.1017C29.9999 15.374 30.0999 16.7441 30.0999 18.1143C30.0999 23.3991 28.5999 27.901 26.3999 29.8584" stroke="#0C8395" stroke-width="0.9" stroke-miterlimit="10" stroke-linecap="round" stroke-linejoin="round"/>
<path d="M21.5999 29.8584C19.3999 27.9011 17.8999 23.3992 17.8999 18.1143C17.8999 11.0678 20.5999 5.39148 23.9999 5.39148C25.6999 5.39148 27.1999 6.8595 28.2999 9.11046" fill="white"/>
<path d="M21.5999 29.8584C19.3999 27.9011 17.8999 23.3992 17.8999 18.1143C17.8999 11.0678 20.5999 5.39148 23.9999 5.39148C25.6999 5.39148 27.1999 6.8595 28.2999 9.11046" stroke="#0C8395" stroke-width="0.9" stroke-miterlimit="10" stroke-linecap="round" stroke-linejoin="round"/>
<path d="M18.5999 30.0542H29.2999" stroke="#0C8395" stroke-width="0.9" stroke-miterlimit="10" stroke-linecap="round" stroke-linejoin="round"/>
<path d="M14.0999 19.6802C13.4999 17.8207 13.5999 15.6676 14.1999 13.8081" stroke="#E94652" stroke-width="0.9" stroke-miterlimit="10" stroke-linecap="round" stroke-linejoin="round"/>
<path d="M15.0999 11.8508C15.1999 11.6551 15.2999 11.4593 15.3999 11.3615" stroke="#E94652" stroke-width="0.9" stroke-miterlimit="10" stroke-linecap="round" stroke-linejoin="round"/>
<path fill-rule="evenodd" clip-rule="evenodd" d="M28.0998 42.0919H19.8998C19.2998 42.0919 18.7998 41.6026 18.7998 41.0154V36.9049C18.7998 36.3177 19.2998 35.8284 19.8998 35.8284H28.0998C28.6998 35.8284 29.1998 36.3177 29.1998 36.9049V40.9175C29.1998 41.5047 28.6998 42.0919 28.0998 42.0919Z" fill="white" stroke="#0C8395" stroke-width="0.9" stroke-miterlimit="10"/>
<path d="M18.6997 37.9814H29.1997" stroke="#0C8395" stroke-width="0.9" stroke-miterlimit="10"/>
</svg>
