<svg width="48" height="48" viewBox="0 0 48 48" fill="none" xmlns="http://www.w3.org/2000/svg">
<circle cx="24" cy="24" r="18.8571" fill="#E9F6F8"/>
<path d="M8.28857 24.5714C8.28857 22.6778 9.8236 21.1428 11.7171 21.1428H36.2886C38.1821 21.1428 39.7171 22.6778 39.7171 24.5714V36C39.7171 36.4734 39.3334 36.8571 38.86 36.8571H35.86C35.3866 36.8571 35.0029 36.4734 35.0029 36V34.5714C35.0029 34.098 34.6191 33.7142 34.1457 33.7142H13.86C13.3866 33.7142 13.0029 34.098 13.0029 34.5714V36C13.0029 36.4734 12.6191 36.8571 12.1457 36.8571H9.14572C8.67233 36.8571 8.28857 36.4734 8.28857 36V24.5714Z" fill="white"/>
<path d="M11.1455 14.3506C11.1455 13.5855 11.5073 12.8774 12.2202 12.5996C13.74 12.0073 17.1346 11.1428 24.0026 11.1428C30.8707 11.1428 34.2653 12.0073 35.7851 12.5996C36.498 12.8774 36.8598 13.5855 36.8598 14.3507V21.1428H11.1455V14.3506Z" fill="white"/>
<path d="M39.5457 26.6785H8.46C8.36533 26.6785 8.28857 26.6018 8.28857 26.5071V24.5714C8.28857 22.6778 9.8236 21.1428 11.7171 21.1428H36.2886C38.1821 21.1428 39.7171 22.6778 39.7171 24.5714V26.5071C39.7171 26.6018 39.6404 26.6785 39.5457 26.6785Z" fill="#BDE4EA"/>
<path fill-rule="evenodd" clip-rule="evenodd" d="M7.85986 24.5714C7.85986 22.4411 9.58677 20.7142 11.717 20.7142H36.2884C38.4187 20.7142 40.1456 22.4411 40.1456 24.5714V36C40.1456 36.71 39.5699 37.2857 38.8599 37.2857H35.8599C35.1498 37.2857 34.5741 36.71 34.5741 35.9999V34.5714C34.5741 34.3347 34.3823 34.1428 34.1456 34.1428H13.8599C13.6232 34.1428 13.4313 34.3347 13.4313 34.5714V35.9999C13.4313 36.71 12.8557 37.2857 12.1456 37.2857H9.14558C8.4355 37.2857 7.85986 36.71 7.85986 35.9999V24.5714ZM11.717 21.5714C10.0602 21.5714 8.71701 22.9145 8.71701 24.5714V35.9999C8.71701 36.2366 8.90888 36.4285 9.14558 36.4285H12.1456C12.3823 36.4285 12.5741 36.2366 12.5741 35.9999V34.5714C12.5741 33.8613 13.1498 33.2857 13.8599 33.2857H34.1456C34.8557 33.2857 35.4313 33.8613 35.4313 34.5714V35.9999C35.4313 36.2366 35.6232 36.4285 35.8599 36.4285H38.8599C39.0966 36.4285 39.2884 36.2366 39.2884 36V24.5714C39.2884 22.9145 37.9453 21.5714 36.2884 21.5714H11.717Z" fill="#0C9AB0"/>
<path fill-rule="evenodd" clip-rule="evenodd" d="M7.85986 26.6785C7.85986 26.4418 8.05174 26.2499 8.28843 26.2499H39.717C39.9537 26.2499 40.1456 26.4418 40.1456 26.6785C40.1456 26.9152 39.9537 27.1071 39.717 27.1071H8.28843C8.05174 27.1071 7.85986 26.9152 7.85986 26.6785Z" fill="#0C9AB0"/>
<path fill-rule="evenodd" clip-rule="evenodd" d="M24.0025 11.5714C17.1662 11.5714 13.8291 12.4325 12.3757 12.9989C11.8707 13.1957 11.5739 13.7106 11.5739 14.3506V20.7142H36.4311V14.3506C36.4311 13.7106 36.1343 13.1957 35.6293 12.9989C34.1759 12.4325 30.8389 11.5714 24.0025 11.5714ZM12.0645 12.2002C13.6506 11.5821 17.1028 10.7142 24.0025 10.7142C30.9022 10.7142 34.3544 11.5821 35.9406 12.2002C36.8614 12.5591 37.2882 13.4605 37.2882 14.3506V21.5714H10.7168V14.3506C10.7168 13.4605 11.1436 12.5591 12.0645 12.2002Z" fill="#0C9AB0"/>
<path fill-rule="evenodd" clip-rule="evenodd" d="M18.2879 16.0952C16.6266 16.0952 15.4939 16.5071 14.868 16.8233C14.5994 16.959 14.4308 17.2639 14.4308 17.6502V20.7142H22.145V17.6502C22.145 17.2639 21.9764 16.959 21.7078 16.8233C21.0819 16.5071 19.9492 16.0952 18.2879 16.0952ZM14.4816 16.0582C15.2149 15.6877 16.4792 15.238 18.2879 15.238C20.0966 15.238 21.3609 15.6877 22.0942 16.0582C22.7238 16.3762 23.0022 17.0303 23.0022 17.6502V21.5714H13.5736V17.6502C13.5736 17.0303 13.852 16.3762 14.4816 16.0582Z" fill="#0C9AB0"/>
<path fill-rule="evenodd" clip-rule="evenodd" d="M29.7167 16.0952C28.0554 16.0952 26.9227 16.5071 26.2969 16.8233C26.0282 16.959 25.8596 17.2639 25.8596 17.6502V20.7142H33.5739V17.6502C33.5739 17.2639 33.4052 16.959 33.1366 16.8233C32.5107 16.5071 31.378 16.0952 29.7167 16.0952ZM25.9104 16.0582C26.6437 15.6877 27.908 15.238 29.7167 15.238C31.5254 15.238 32.7897 15.6877 33.523 16.0582C34.1526 16.3762 34.431 17.0303 34.431 17.6502V21.5714H25.0024V17.6502C25.0024 17.0303 25.2808 16.3762 25.9104 16.0582Z" fill="#0C9AB0"/>
<path fill-rule="evenodd" clip-rule="evenodd" d="M10.4795 29.2976C10.4795 29.0609 10.6714 28.869 10.9081 28.869H30.2677C30.5044 28.869 30.6963 29.0609 30.6963 29.2976C30.6963 29.5343 30.5044 29.7262 30.2677 29.7262H10.9081C10.6714 29.7262 10.4795 29.5343 10.4795 29.2976ZM32.596 29.2976C32.596 29.0609 32.7879 28.869 33.0246 28.869H37.0985C37.3352 28.869 37.5271 29.0609 37.5271 29.2976C37.5271 29.5343 37.3352 29.7262 37.0985 29.7262H33.0246C32.7879 29.7262 32.596 29.5343 32.596 29.2976Z" fill="#EF4550"/>
<path fill-rule="evenodd" clip-rule="evenodd" d="M15.1461 22.7572C15.3828 22.7572 15.5747 22.9491 15.5747 23.1858V24.6286C15.5747 24.8653 15.3828 25.0572 15.1461 25.0572C14.9094 25.0572 14.7175 24.8653 14.7175 24.6286V23.1858C14.7175 22.9491 14.9094 22.7572 15.1461 22.7572ZM17.7175 22.7572C17.9542 22.7572 18.1461 22.9491 18.1461 23.1858V24.6286C18.1461 24.8653 17.9542 25.0572 17.7175 25.0572C17.4808 25.0572 17.289 24.8653 17.289 24.6286V23.1858C17.289 22.9491 17.4808 22.7572 17.7175 22.7572ZM20.289 22.7572C20.5257 22.7572 20.7175 22.9491 20.7175 23.1858V24.6286C20.7175 24.8653 20.5257 25.0572 20.289 25.0572C20.0523 25.0572 19.8604 24.8653 19.8604 24.6286V23.1858C19.8604 22.9491 20.0523 22.7572 20.289 22.7572ZM22.8604 22.7572C23.0971 22.7572 23.289 22.9491 23.289 23.1858V24.6286C23.289 24.8653 23.0971 25.0572 22.8604 25.0572C22.6237 25.0572 22.4318 24.8653 22.4318 24.6286V23.1858C22.4318 22.9491 22.6237 22.7572 22.8604 22.7572ZM25.1461 22.7572C25.3828 22.7572 25.5747 22.9491 25.5747 23.1858V24.6286C25.5747 24.8653 25.3828 25.0572 25.1461 25.0572C24.9094 25.0572 24.7175 24.8653 24.7175 24.6286V23.1858C24.7175 22.9491 24.9094 22.7572 25.1461 22.7572ZM27.7175 22.7572C27.9542 22.7572 28.1461 22.9491 28.1461 23.1858V24.6286C28.1461 24.8653 27.9542 25.0572 27.7175 25.0572C27.4808 25.0572 27.289 24.8653 27.289 24.6286V23.1858C27.289 22.9491 27.4808 22.7572 27.7175 22.7572ZM30.289 22.7572C30.5257 22.7572 30.7175 22.9491 30.7175 23.1858V24.6286C30.7175 24.8653 30.5257 25.0572 30.289 25.0572C30.0523 25.0572 29.8604 24.8653 29.8604 24.6286V23.1858C29.8604 22.9491 30.0523 22.7572 30.289 22.7572ZM32.8604 22.7572C33.0971 22.7572 33.289 22.9491 33.289 23.1858V24.6286C33.289 24.8653 33.0971 25.0572 32.8604 25.0572C32.6237 25.0572 32.4318 24.8653 32.4318 24.6286V23.1858C32.4318 22.9491 32.6237 22.7572 32.8604 22.7572Z" fill="white"/>
</svg>
