<svg width="48" height="48" viewBox="0 0 48 48" fill="none" xmlns="http://www.w3.org/2000/svg">
<path d="M23.9998 5.25C34.3551 5.25 42.7498 13.6447 42.7498 24C42.7498 26.6192 42.212 29.1127 41.2419 31.377C39.8346 30.4195 38.135 29.8594 36.3044 29.8594C32.3144 29.8594 28.9467 32.5186 27.8738 36.1611C27.226 35.877 26.5103 35.7188 25.7576 35.7188C22.8451 35.7188 20.4841 38.0798 20.4841 40.9922C20.4841 41.5013 20.5575 41.9932 20.6921 42.459C11.9143 40.8967 5.24976 33.2267 5.24976 24C5.24976 13.6447 13.6444 5.25001 23.9998 5.25Z" fill="#E9F6F8"/>
<path d="M8.1909 34.1592L23.0959 30.9205C23.2541 30.8861 42.0581 19.0665 42.1987 18.9862C43.0073 18.5249 44.7921 17.2359 45.1887 16.464C45.3146 16.255 45.387 16.0103 45.387 15.7486C45.387 15.1643 45.0261 14.6644 44.515 14.4596C43.892 14.2511 43.2048 14.1621 42.5116 14.1621C42.4582 14.1621 42.405 14.1628 42.3519 14.1641C41.6585 13.8986 40.9186 13.7655 40.1318 13.7655C39.3451 13.7655 38.6532 13.8966 37.9598 14.1621C36.8096 14.6297 32.0181 17.2373 29.9633 18.3632L11.0305 15.7486L6.78073 17.8506L20.0527 23.6511L19.5917 23.9075L6.66173 30.8003C5.90806 31.2021 5.69041 32.181 6.20291 32.864L6.78073 33.6341C7.1076 34.0697 7.65855 34.2749 8.1909 34.1592Z" fill="white"/>
<path fill-rule="evenodd" clip-rule="evenodd" d="M15.7753 19.089C15.8971 19.292 15.8313 19.5552 15.6283 19.677L11.9809 21.8654C11.778 21.9872 11.5147 21.9214 11.3929 21.7184C11.2711 21.5155 11.337 21.2522 11.5399 21.1304L15.1873 18.942C15.3903 18.8202 15.6536 18.886 15.7753 19.089Z" fill="#EF4550"/>
<path fill-rule="evenodd" clip-rule="evenodd" d="M18.6933 19.8185C18.815 20.0214 18.7492 20.2847 18.5463 20.4065L14.8989 22.5949C14.6959 22.7167 14.4326 22.6509 14.3109 22.4479C14.1891 22.245 14.2549 21.9817 14.4579 21.8599L18.1053 19.6715C18.3082 19.5497 18.5715 19.6155 18.6933 19.8185Z" fill="#EF4550"/>
<path d="M5.25197 25.8861L12.7127 27.3395C12.8745 27.371 12.9029 27.5906 12.7543 27.6622L7.46437 30.2127C7.41353 30.2372 7.35387 30.2351 7.30487 30.2071L2.55488 27.4928C2.436 27.4249 2.44081 27.2519 2.56327 27.1907L5.14252 25.901C5.17636 25.8841 5.21484 25.8789 5.25197 25.8861Z" fill="#BDE4EA"/>
<path fill-rule="evenodd" clip-rule="evenodd" d="M32.9578 20.2452C33.0854 20.4445 33.0272 20.7096 32.8279 20.8372L29.7043 22.8362C29.5049 22.9638 29.2399 22.9056 29.1123 22.7063C28.9847 22.5069 29.0429 22.2419 29.2423 22.1143L32.3658 20.1152C32.5652 19.9876 32.8302 20.0458 32.9578 20.2452ZM28.2725 23.2438C28.4001 23.4431 28.3419 23.7082 28.1425 23.8358L26.5807 24.8353C26.3814 24.9629 26.1163 24.9047 25.9887 24.7054C25.8612 24.506 25.9193 24.241 26.1187 24.1134L27.6805 23.1138C27.8798 22.9862 28.1449 23.0444 28.2725 23.2438Z" fill="#91D2DC"/>
<path d="M43.5638 14.0744L39.0828 16.5593C38.6818 16.8012 38.1606 16.6721 37.9188 16.2711C37.6769 15.87 37.806 15.3488 38.207 15.107L41.0475 13.7627L43.5638 14.0744Z" fill="#91D2DC"/>
<path fill-rule="evenodd" clip-rule="evenodd" d="M10.7908 15.3029C10.9007 15.248 11.0248 15.2281 11.1464 15.246L35.8955 18.8855C36.1296 18.92 36.2916 19.1377 36.2571 19.3719C36.2227 19.6061 36.0049 19.768 35.7708 19.7336L11.1017 16.1058L7.67699 17.8181L11.1977 19.3076C11.4157 19.3999 11.5176 19.6513 11.4254 19.8693C11.3332 20.0873 11.0817 20.1893 10.8637 20.097L6.82928 18.3902C6.35763 18.1906 6.33668 17.53 6.79474 17.3009L10.7908 15.3029ZM17.5325 22.4531C17.6247 22.2351 17.8762 22.1332 18.0942 22.2254L24.659 25.0028C24.877 25.0951 24.979 25.3465 24.8867 25.5645C24.7945 25.7825 24.543 25.8845 24.325 25.7922L17.7602 23.0148C17.5422 22.9226 17.4403 22.6711 17.5325 22.4531Z" fill="#0C9AB0"/>
<path fill-rule="evenodd" clip-rule="evenodd" d="M5.25602 26.3234L12.6465 27.7631C12.8788 27.8084 13.1038 27.6568 13.1491 27.4244C13.1944 27.1921 13.0427 26.9671 12.8104 26.9218L5.33402 25.4654C5.20407 25.4401 5.06939 25.4584 4.95097 25.5177L2.37172 26.8073C1.94309 27.0216 1.92629 27.6271 2.34236 27.8649L7.17063 30.6239C7.37614 30.7413 7.63793 30.6699 7.75537 30.4644C7.8728 30.2589 7.8014 29.9971 7.59589 29.8797L3.18479 27.3591L5.25602 26.3234Z" fill="#0C9AB0"/>
<path fill-rule="evenodd" clip-rule="evenodd" d="M42.8843 13.7748C44.1218 13.7836 45.0635 14.0291 45.5711 14.561C45.8458 14.8488 45.9776 15.2059 45.959 15.5949C45.9411 15.9699 45.7855 16.3454 45.5444 16.7034C45.2635 17.1204 44.6732 17.6702 44.088 18.1527C43.4932 18.6429 42.8457 19.1106 42.4113 19.3584C42.4113 19.3584 42.4066 19.3614 42.396 19.368C42.368 19.3854 42.3012 19.427 42.1902 19.4964C42.0449 19.5873 41.8358 19.7183 41.5718 19.8838C41.044 20.2146 40.2974 20.683 39.4048 21.243L39.1935 21.3756C37.4351 22.4787 35.1586 23.9069 32.8817 25.3337C30.5125 26.8183 28.1424 28.3018 26.3546 29.4162C25.4609 29.9734 24.7121 30.4387 24.1816 30.7659C23.9165 30.9294 23.705 31.059 23.5568 31.1485C23.483 31.1931 23.4232 31.2287 23.3798 31.254C23.3585 31.2664 23.3384 31.2778 23.3214 31.287C23.3133 31.2914 23.3023 31.2973 23.2904 31.3031C23.2868 31.3048 23.2819 31.3071 23.276 31.3098C23.2722 31.3115 23.2679 31.3134 23.2634 31.3153C23.2575 31.3177 23.2272 31.3306 23.1871 31.3393L8.28212 34.578C7.58608 34.7292 6.86563 34.461 6.43815 33.8913L5.86033 33.1212C5.18999 32.2279 5.47477 30.9475 6.46035 30.4221L19.387 23.5311L19.8446 23.2765L20.2613 24.0256L19.7936 24.2858L6.86356 31.1785C6.34179 31.4566 6.19128 32.1341 6.54593 32.6068L7.12375 33.3768C7.35001 33.6784 7.73147 33.8205 8.10012 33.7404L22.9465 30.5144L22.9491 30.5129C22.9861 30.4914 23.041 30.4587 23.1136 30.4148C23.2583 30.3274 23.4671 30.1995 23.7316 30.0363C24.2603 29.7102 25.0077 29.2458 25.9012 28.6888C27.6881 27.5749 30.0574 26.092 32.4266 24.6074C34.6036 23.2432 36.7857 21.8742 38.5144 20.7897C40.5399 19.519 41.943 18.6388 41.9865 18.614C42.3608 18.4004 42.9658 17.9668 43.5427 17.4913C44.1291 17.0079 44.6295 16.5273 44.8334 16.2245C45.0204 15.9469 45.0948 15.722 45.1029 15.5539C45.1102 15.3998 45.0641 15.2713 44.951 15.1528C44.6925 14.8819 44.0449 14.6317 42.8153 14.6317H42.7458L42.6798 14.6097C42.0973 14.4156 41.2861 14.2644 40.4458 14.2341C39.6017 14.2035 38.7676 14.2964 38.1214 14.5591C36.8274 15.0851 32.9933 17.1894 30.7583 18.416C30.5465 18.5322 30.3491 18.6406 30.1695 18.739L29.7576 17.9873C29.9388 17.888 30.1398 17.7777 30.3567 17.6586C32.5751 16.4408 36.4534 14.3119 37.7986 13.7651C38.5992 13.4396 39.5675 13.3446 40.4767 13.3775C41.3597 13.4094 42.224 13.5633 42.8843 13.7748ZM23.0051 30.5017L23.0042 30.5019Z" fill="#0C9AB0"/>
</svg>
