<svg width="40" height="40" viewBox="0 0 40 40" fill="none" xmlns="http://www.w3.org/2000/svg">
<rect x="0.25" y="0.25" width="39.5" height="39.5" rx="19.75" fill="white"/>
<rect x="0.25" y="0.25" width="39.5" height="39.5" rx="19.75" stroke="#D8DCDE" stroke-width="0.5"/>
<g clip-path="url(#clip0_6074_18018)">
<path d="M20 36C28.8366 36 36 28.8366 36 20C36 11.1634 28.8366 4 20 4C11.1634 4 4 11.1634 4 20C4 28.8366 11.1634 36 20 36Z" fill="#E9F6F8"/>
<path d="M24 7C24 6.44771 24.4477 6 25 6H33C33.5523 6 34 6.44772 34 7V16C34 16.5523 33.5523 17 33 17H29H25C24.4477 17 24 16.5523 24 16V7Z" fill="white"/>
<path d="M29 17H33C33.5523 17 34 16.5523 34 16V7C34 6.44772 33.5523 6 33 6H25C24.4477 6 24 6.44771 24 7V16C24 16.5523 24.4477 17 25 17H29ZM29 17V24.5" stroke="#0C9AB0" stroke-width="0.8"/>
<path d="M29 8V10.25M29 14V10.25M29 14L27.875 15.125M29 14L30.125 15.125M29 14V15M29 10.25L26 12.875M29 10.25L32 12.875" stroke="#0C9AB0" stroke-width="0.8" stroke-linecap="round" stroke-linejoin="round"/>
<path d="M4.04663 21.2308C4.01573 20.8246 4 20.4141 4 20C4 18.6188 4.17501 17.2785 4.50407 16H12.9813C15.3568 16 17.6616 16.8085 19.5166 18.2925L22.6073 20.765C22.8003 20.9194 22.6911 21.2308 22.4439 21.2308H4.04663Z" fill="#BDE4EA"/>
<path d="M7.82698 30.3846H32.9967C33.7189 30.3846 34.3044 29.7991 34.3044 29.0769V24.0759C34.3044 23.9351 34.2248 23.8063 34.0988 23.7433C33.6141 23.501 33.1784 23.2757 32.7761 23.0676C30.435 21.8571 29.2235 21.2307 26.0706 21.2307H4.04614C4.31095 24.712 5.6898 27.8818 7.82698 30.3846Z" fill="white"/>
<path d="M23.1888 21.2308H23.8645C27.2901 21.2308 30.6686 22.0283 33.7325 23.5603C34.0829 23.7355 34.3042 24.0936 34.3042 24.4854V25.1539M23.1888 21.2308L18.8417 17.753C17.4232 16.6182 15.6607 16 13.8441 16H10.7657M23.1888 21.2308H10.7657M10.7657 16H5.43754M10.7657 16V21.2308M10.7657 21.2308H4.78369M34.3042 25.1539L31.0005 24.5M34.3042 25.1539V29.3846C34.3042 29.9369 33.8565 30.3846 33.3042 30.3846H30.3811M20.5735 25.8077H5.576M8.84267 30.3846H20.5735" stroke="#0C9AB0" stroke-width="0.8" stroke-linecap="round" stroke-linejoin="round"/>
<ellipse cx="26.4595" cy="29.0769" rx="3.92308" ry="3.92308" fill="#E9F6F8" stroke="#0C9AB0" stroke-width="0.8"/>
<circle cx="26.4572" cy="29.0769" r="2.61539" fill="#91D2DC"/>
<path d="M8.15015 27.377L8.80399 28.6846M10.1117 27.377L10.7655 28.6846M12.0732 27.377L12.7271 28.6846M14.0348 27.377L14.6886 28.6846M15.9963 27.377L16.6502 28.6846" stroke="#EF4550" stroke-width="0.8" stroke-linecap="round" stroke-linejoin="round"/>
<path d="M24 7C24 6.44771 24.4477 6 25 6H33C33.5523 6 34 6.44772 34 7V16C34 16.5523 33.5523 17 33 17H29H25C24.4477 17 24 16.5523 24 16V7Z" fill="white"/>
<path fill-rule="evenodd" clip-rule="evenodd" d="M23.6001 6.99998C23.6001 6.22678 24.2269 5.59998 25.0001 5.59998H33.0001C33.7733 5.59998 34.4001 6.22678 34.4001 6.99998V16C34.4001 16.7732 33.7733 17.4 33.0001 17.4H29.4001V24.5H28.6001V17.4H25.0001C24.2269 17.4 23.6001 16.7732 23.6001 16V6.99998ZM25.0001 6.39998C24.6687 6.39998 24.4001 6.6686 24.4001 6.99998V16C24.4001 16.3313 24.6687 16.6 25.0001 16.6H33.0001C33.3315 16.6 33.6001 16.3313 33.6001 16V6.99998C33.6001 6.6686 33.3315 6.39998 33.0001 6.39998H25.0001Z" fill="#0C9AB0"/>
<path fill-rule="evenodd" clip-rule="evenodd" d="M29.0001 7.59998C29.221 7.59998 29.4001 7.77906 29.4001 7.99998V10.0685L32.2635 12.5739C32.4298 12.7194 32.4466 12.9721 32.3011 13.1384C32.1557 13.3046 31.903 13.3215 31.7367 13.176L29.4001 11.1315V13.8343L30.4079 14.8421C30.5642 14.9983 30.5642 15.2516 30.4079 15.4078C30.2517 15.564 29.9985 15.564 29.8423 15.4078L29.4001 14.9657V15C29.4001 15.2209 29.221 15.4 29.0001 15.4C28.7792 15.4 28.6001 15.2209 28.6001 15V14.9657L28.1579 15.4078C28.0017 15.564 27.7485 15.564 27.5923 15.4078C27.4361 15.2516 27.4361 14.9983 27.5923 14.8421L28.6001 13.8343V11.1315L26.2635 13.176C26.0973 13.3215 25.8445 13.3046 25.6991 13.1384C25.5536 12.9721 25.5704 12.7194 25.7367 12.5739L28.6001 10.0685V7.99998C28.6001 7.77906 28.7792 7.59998 29.0001 7.59998Z" fill="#0C9AB0"/>
<path d="M4.04663 21.2308C4.01573 20.8246 4 20.4141 4 20C4 18.6188 4.17501 17.2785 4.50407 16H12.9813C15.3568 16 17.6616 16.8085 19.5166 18.2925L22.6073 20.765C22.8003 20.9194 22.6911 21.2308 22.4439 21.2308H4.04663Z" fill="#BDE4EA"/>
<path d="M7.82698 30.3846H32.9967C33.7189 30.3846 34.3044 29.7991 34.3044 29.0769V24.0759C34.3044 23.9351 34.2248 23.8063 34.0988 23.7433C33.6141 23.501 33.1784 23.2757 32.7761 23.0676C30.435 21.8571 29.2235 21.2307 26.0706 21.2307H4.04614C4.31095 24.712 5.6898 27.8818 7.82698 30.3846Z" fill="white"/>
<path fill-rule="evenodd" clip-rule="evenodd" d="M5.03739 16C5.03739 15.7791 5.21648 15.6 5.43739 15.6H13.844C15.7514 15.6 17.602 16.2491 19.0914 17.4407L23.329 20.8307H23.8644C27.352 20.8307 30.7918 21.6428 33.9112 23.2025C34.3971 23.4454 34.7041 23.9421 34.7041 24.4854V29.3846C34.7041 30.1578 34.0773 30.7846 33.3041 30.7846H30.381C30.1601 30.7846 29.981 30.6055 29.981 30.3846C29.981 30.1637 30.1601 29.9846 30.381 29.9846H33.3041C33.6355 29.9846 33.9041 29.716 33.9041 29.3846V25.4824L30.9227 24.8924C30.706 24.8495 30.5651 24.639 30.608 24.4223C30.6508 24.2056 30.8613 24.0647 31.078 24.1076L33.9041 24.6669V24.4854C33.9041 24.2451 33.7683 24.0255 33.5534 23.918C30.5451 22.4138 27.2278 21.6307 23.8644 21.6307H4.78354C4.56263 21.6307 4.38354 21.4517 4.38354 21.2307C4.38354 21.0098 4.56263 20.8307 4.78354 20.8307H10.3656V16.4H5.43739C5.21648 16.4 5.03739 16.2209 5.03739 16ZM11.1656 16.4V20.8307H22.0484L18.5917 18.0654C17.2441 16.9873 15.5697 16.4 13.844 16.4H11.1656ZM5.17586 25.8077C5.17586 25.5868 5.35494 25.4077 5.57586 25.4077H20.5733C20.7942 25.4077 20.9733 25.5868 20.9733 25.8077C20.9733 26.0286 20.7942 26.2077 20.5733 26.2077H5.57586C5.35494 26.2077 5.17586 26.0286 5.17586 25.8077ZM8.44252 30.3846C8.44252 30.1637 8.62161 29.9846 8.84252 29.9846H20.5733C20.7942 29.9846 20.9733 30.1637 20.9733 30.3846C20.9733 30.6055 20.7942 30.7846 20.5733 30.7846H8.84252C8.62161 30.7846 8.44252 30.6055 8.44252 30.3846Z" fill="#0C9AB0"/>
<path d="M30.3823 29.0769C30.3823 31.2435 28.6259 33 26.4592 33C24.2926 33 22.5361 31.2435 22.5361 29.0769C22.5361 26.9102 24.2926 25.1538 26.4592 25.1538C28.6259 25.1538 30.3823 26.9102 30.3823 29.0769Z" fill="#E9F6F8"/>
<path fill-rule="evenodd" clip-rule="evenodd" d="M26.4598 25.5538C24.5141 25.5538 22.9367 27.1311 22.9367 29.0769C22.9367 31.0226 24.5141 32.5999 26.4598 32.5999C28.4055 32.5999 29.9829 31.0226 29.9829 29.0769C29.9829 27.1311 28.4055 25.5538 26.4598 25.5538ZM22.1367 29.0769C22.1367 26.6893 24.0722 24.7538 26.4598 24.7538C28.8474 24.7538 30.7829 26.6893 30.7829 29.0769C30.7829 31.4644 28.8474 33.3999 26.4598 33.3999C24.0722 33.3999 22.1367 31.4644 22.1367 29.0769Z" fill="#0C9AB0"/>
<path d="M29.0726 29.0768C29.0726 30.5213 27.9016 31.6922 26.4572 31.6922C25.0127 31.6922 23.8418 30.5213 23.8418 29.0768C23.8418 27.6324 25.0127 26.4614 26.4572 26.4614C27.9016 26.4614 29.0726 27.6324 29.0726 29.0768Z" fill="#91D2DC"/>
<path fill-rule="evenodd" clip-rule="evenodd" d="M7.9712 27.0191C8.16879 26.9203 8.40906 27.0004 8.50786 27.198L9.16171 28.5057C9.2605 28.7033 9.18041 28.9436 8.98282 29.0424C8.78523 29.1412 8.54496 29.0611 8.44616 28.8635L7.79232 27.5558C7.69352 27.3582 7.77361 27.1179 7.9712 27.0191ZM9.93274 27.0191C10.1303 26.9203 10.3706 27.0004 10.4694 27.198L11.1232 28.5057C11.222 28.7033 11.142 28.9436 10.9444 29.0424C10.7468 29.1412 10.5065 29.0611 10.4077 28.8635L9.75386 27.5558C9.65506 27.3582 9.73515 27.1179 9.93274 27.0191ZM11.8943 27.0191C12.0919 26.9203 12.3321 27.0004 12.4309 27.198L13.0848 28.5057C13.1836 28.7033 13.1035 28.9436 12.9059 29.0424C12.7083 29.1412 12.468 29.0611 12.3692 28.8635L11.7154 27.5558C11.6166 27.3582 11.6967 27.1179 11.8943 27.0191ZM13.8558 27.0191C14.0534 26.9203 14.2937 27.0004 14.3925 27.198L15.0463 28.5057C15.1451 28.7033 15.065 28.9436 14.8674 29.0424C14.6698 29.1412 14.4296 29.0611 14.3308 28.8635L13.6769 27.5558C13.5781 27.3582 13.6582 27.1179 13.8558 27.0191ZM15.8174 27.0191C16.015 26.9203 16.2552 27.0004 16.354 27.198L17.0079 28.5057C17.1067 28.7033 17.0266 28.9436 16.829 29.0424C16.6314 29.1412 16.3911 29.0611 16.2923 28.8635L15.6385 27.5558C15.5397 27.3582 15.6198 27.1179 15.8174 27.0191Z" fill="#EF4550"/>
</g>
<defs>
<clipPath id="clip0_6074_18018">
<rect width="32" height="32" fill="white" transform="translate(4 4)"/>
</clipPath>
</defs>
</svg>
