<svg width="40" height="40" viewBox="0 0 40 40" fill="none" xmlns="http://www.w3.org/2000/svg">
<rect x="0.25" y="0.25" width="39.5" height="39.5" rx="19.75" fill="white"/>
<rect x="0.25" y="0.25" width="39.5" height="39.5" rx="19.75" stroke="#D8DCDE" stroke-width="0.5"/>
<g clip-path="url(#clip0_6074_18042)">
<circle cx="20" cy="20" r="16" fill="#E9F6F8"/>
<path d="M10 19C10 13.4772 14.4772 9 20 9C24.8203 9 28.844 12.4105 29.7897 16.9501C29.7897 16.9501 28.9975 17.5224 28 19L27.7622 19.3567C26.3275 21.5333 24.4481 24.7884 23 26.5C21.5961 28.1594 19.6014 28.9922 19.6014 28.9922C14.2633 28.7829 10 24.3893 10 19Z" fill="white"/>
<path fill-rule="evenodd" clip-rule="evenodd" d="M19.9996 9.39998C14.6977 9.39998 10.3996 13.698 10.3996 19C10.3996 24.1156 14.4011 28.2969 19.4445 28.5842L19.399 29.3829C13.9345 29.0716 9.59961 24.5422 9.59961 19C9.59961 13.2562 14.2558 8.59998 19.9996 8.59998C25.0132 8.59998 29.1973 12.1472 30.1809 16.8685L29.3977 17.0316C28.4898 12.6738 24.6266 9.39998 19.9996 9.39998Z" fill="#0C9AB0"/>
<path fill-rule="evenodd" clip-rule="evenodd" d="M6 33.1C6 32.879 6.17909 32.7 6.4 32.7H33.6C33.8209 32.7 34 32.879 34 33.1C34 33.3209 33.8209 33.5 33.6 33.5H6.4C6.17909 33.5 6 33.3209 6 33.1Z" fill="#0C9AB0"/>
<path d="M15 25.5C15 24.3954 14.1046 23.5 13 23.5C11.8954 23.5 11 24.3954 11 25.5C11 26.6046 11.8954 27.5 13 27.5C14.1046 27.5 15 26.6046 15 25.5Z" fill="#E9F6F8"/>
<path fill-rule="evenodd" clip-rule="evenodd" d="M12.9996 23.9C12.116 23.9 11.3996 24.6163 11.3996 25.5C11.3996 26.3836 12.116 27.1 12.9996 27.1C13.8833 27.1 14.5996 26.3836 14.5996 25.5C14.5996 24.6163 13.8833 23.9 12.9996 23.9ZM10.5996 25.5C10.5996 24.1745 11.6741 23.1 12.9996 23.1C14.3251 23.1 15.3996 24.1745 15.3996 25.5C15.3996 26.8255 14.3251 27.9 12.9996 27.9C11.6741 27.9 10.5996 26.8255 10.5996 25.5Z" fill="#0C9AB0"/>
<path d="M12 18.5C12 17.3954 11.1046 16.5 10 16.5C8.89543 16.5 8 17.3954 8 18.5C8 19.6046 8.89543 20.5 10 20.5C11.1046 20.5 12 19.6046 12 18.5Z" fill="white"/>
<path fill-rule="evenodd" clip-rule="evenodd" d="M9.99961 16.9C9.11595 16.9 8.39961 17.6163 8.39961 18.5C8.39961 19.3836 9.11595 20.1 9.99961 20.1C10.8833 20.1 11.5996 19.3836 11.5996 18.5C11.5996 17.6163 10.8833 16.9 9.99961 16.9ZM7.59961 18.5C7.59961 17.1745 8.67413 16.1 9.99961 16.1C11.3251 16.1 12.3996 17.1745 12.3996 18.5C12.3996 19.8255 11.3251 20.9 9.99961 20.9C8.67413 20.9 7.59961 19.8255 7.59961 18.5Z" fill="#EF4550"/>
<path d="M15 11.5C15 10.3954 14.1046 9.5 13 9.5C11.8954 9.5 11 10.3954 11 11.5C11 12.6046 11.8954 13.5 13 13.5C14.1046 13.5 15 12.6046 15 11.5Z" fill="#E9F6F8"/>
<path fill-rule="evenodd" clip-rule="evenodd" d="M12.9996 9.89998C12.116 9.89998 11.3996 10.6163 11.3996 11.5C11.3996 12.3836 12.116 13.1 12.9996 13.1C13.8833 13.1 14.5996 12.3836 14.5996 11.5C14.5996 10.6163 13.8833 9.89998 12.9996 9.89998ZM10.5996 11.5C10.5996 10.1745 11.6741 9.09998 12.9996 9.09998C14.3251 9.09998 15.3996 10.1745 15.3996 11.5C15.3996 12.8255 14.3251 13.9 12.9996 13.9C11.6741 13.9 10.5996 12.8255 10.5996 11.5Z" fill="#0C9AB0"/>
<path d="M22 8.90002C22 7.79545 21.1046 6.90002 20 6.90002C18.8954 6.90002 18 7.79545 18 8.90002C18 10.0046 18.8954 10.9 20 10.9C21.1046 10.9 22 10.0046 22 8.90002Z" fill="white"/>
<path fill-rule="evenodd" clip-rule="evenodd" d="M19.9996 7.3C19.116 7.3 18.3996 8.01634 18.3996 8.9C18.3996 9.78366 19.116 10.5 19.9996 10.5C20.8833 10.5 21.5996 9.78366 21.5996 8.9C21.5996 8.01634 20.8833 7.3 19.9996 7.3ZM17.5996 8.9C17.5996 7.57452 18.6741 6.5 19.9996 6.5C21.3251 6.5 22.3996 7.57452 22.3996 8.9C22.3996 10.2255 21.3251 11.3 19.9996 11.3C18.6741 11.3 17.5996 10.2255 17.5996 8.9Z" fill="#EF4550"/>
<path d="M30 12.5C30 11.3954 29.1046 10.5 28 10.5C26.8954 10.5 26 11.3954 26 12.5C26 13.6046 26.8954 14.5 28 14.5C29.1046 14.5 30 13.6046 30 12.5Z" fill="#E9F6F8"/>
<path fill-rule="evenodd" clip-rule="evenodd" d="M27.9996 10.9C27.116 10.9 26.3996 11.6163 26.3996 12.5C26.3996 13.3836 27.116 14.1 27.9996 14.1C28.8833 14.1 29.5996 13.3836 29.5996 12.5C29.5996 11.6163 28.8833 10.9 27.9996 10.9ZM25.5996 12.5C25.5996 11.1745 26.6741 10.1 27.9996 10.1C29.3251 10.1 30.3996 11.1745 30.3996 12.5C30.3996 13.8255 29.3251 14.9 27.9996 14.9C26.6741 14.9 25.5996 13.8255 25.5996 12.5Z" fill="#0C9AB0"/>
<path fill-rule="evenodd" clip-rule="evenodd" d="M32.8661 16.32C32.5212 16.2953 32.0591 16.296 31.5782 16.3922C30.4852 16.6108 29.5625 17.4657 28.6374 18.7569C28.0386 19.5926 27.4734 20.5578 26.8734 21.5822C26.5433 22.1459 26.2027 22.7276 25.8402 23.3154C23.8342 26.5687 21.2312 29.8727 16.502 29.9C13.7912 29.9156 11.5753 29.1404 9.84169 27.7619C8.11218 26.3866 6.88864 24.4316 6.12024 22.1264C6.05039 21.9169 6.16365 21.6903 6.37323 21.6205C6.5828 21.5506 6.80933 21.6639 6.87919 21.8735C7.6108 24.0683 8.75851 25.8785 10.3396 27.1357C11.9167 28.3898 13.9507 29.1146 16.4974 29.1C20.7683 29.0753 23.1653 26.1293 25.1592 22.8955C25.4986 22.3452 25.8288 21.7817 26.1548 21.2253C26.7691 20.1772 27.3686 19.1541 27.9871 18.2909C28.9369 16.9652 30.0142 15.8891 31.4213 15.6077C31.9934 15.4933 32.5314 15.494 32.9231 15.522C33.12 15.5361 33.2825 15.5572 33.3971 15.5751C33.4545 15.5841 33.5 15.5923 33.5321 15.5984C33.5482 15.6015 33.5609 15.6041 33.57 15.606L33.581 15.6083L33.5845 15.609L33.5857 15.6093C33.5858 15.6093 33.5866 15.6095 33.4997 16L33.5857 15.6093C33.8013 15.6573 33.9381 15.8712 33.8902 16.0868C33.8423 16.3023 33.6288 16.4382 33.4134 16.3905C33.4133 16.3905 33.4135 16.3905 33.4134 16.3905L33.4076 16.3893L33.3818 16.3842C33.358 16.3796 33.3214 16.373 33.2735 16.3655C33.1777 16.3505 33.0376 16.3322 32.8661 16.32Z" fill="#0C9AB0"/>
<path fill-rule="evenodd" clip-rule="evenodd" d="M7.99961 24.8665C8.22052 24.8665 8.39961 25.0455 8.39961 25.2665V33C8.39961 33.2209 8.22052 33.4 7.99961 33.4C7.7787 33.4 7.59961 33.2209 7.59961 33V25.2665C7.59961 25.0455 7.7787 24.8665 7.99961 24.8665Z" fill="#0C9AB0"/>
<path fill-rule="evenodd" clip-rule="evenodd" d="M13.9996 29.1C14.2205 29.1 14.3996 29.2791 14.3996 29.5V33C14.3996 33.2209 14.2205 33.4 13.9996 33.4C13.7787 33.4 13.5996 33.2209 13.5996 33V29.5C13.5996 29.2791 13.7787 29.1 13.9996 29.1Z" fill="#0C9AB0"/>
<path fill-rule="evenodd" clip-rule="evenodd" d="M19.9996 28.4183C20.2205 28.4183 20.3996 28.5974 20.3996 28.8183V33C20.3996 33.2209 20.2205 33.4 19.9996 33.4C19.7787 33.4 19.5996 33.2209 19.5996 33V28.8183C19.5996 28.5974 19.7787 28.4183 19.9996 28.4183Z" fill="#0C9AB0"/>
<path fill-rule="evenodd" clip-rule="evenodd" d="M25.9996 22C26.2205 22 26.3996 22.1791 26.3996 22.4V33C26.3996 33.2209 26.2205 33.4 25.9996 33.4C25.7787 33.4 25.5996 33.2209 25.5996 33V22.4C25.5996 22.1791 25.7787 22 25.9996 22Z" fill="#0C9AB0"/>
<path fill-rule="evenodd" clip-rule="evenodd" d="M31.9996 15.5437C32.2205 15.5437 32.3996 15.7228 32.3996 15.9437L32.3996 33C32.3996 33.221 32.2205 33.4 31.9996 33.4C31.7787 33.4 31.5996 33.221 31.5996 33L31.5996 15.9437C31.5996 15.7228 31.7787 15.5437 31.9996 15.5437Z" fill="#0C9AB0"/>
<path d="M20.0036 16.5H19.9964C18.3416 16.5 17 17.8416 17 19.4964V19.5036C17 21.1584 18.3416 22.5 19.9964 22.5H20.0036C21.6584 22.5 23 21.1584 23 19.5036V19.4964C23 17.8416 21.6584 16.5 20.0036 16.5Z" fill="#E9F6F8"/>
<path fill-rule="evenodd" clip-rule="evenodd" d="M19.9961 16.9C18.5621 16.9 17.3996 18.0624 17.3996 19.4964V19.5035C17.3996 20.9375 18.5621 22.1 19.9961 22.1H20.0032C21.4371 22.1 22.5996 20.9375 22.5996 19.5035V19.4964C22.5996 18.0624 21.4371 16.9 20.0032 16.9H19.9961ZM16.5996 19.4964C16.5996 17.6206 18.1202 16.1 19.9961 16.1H20.0032C21.879 16.1 23.3996 17.6206 23.3996 19.4964V19.5035C23.3996 21.3793 21.879 22.9 20.0032 22.9H19.9961C18.1202 22.9 16.5996 21.3793 16.5996 19.5035V19.4964Z" fill="#0C9AB0"/>
</g>
<defs>
<clipPath id="clip0_6074_18042">
<rect width="32" height="32" fill="white" transform="translate(4 4)"/>
</clipPath>
</defs>
</svg>
