<svg width="40" height="40" viewBox="0 0 40 40" fill="none" xmlns="http://www.w3.org/2000/svg">
<rect x="0.25" y="0.25" width="39.5" height="39.5" rx="19.75" fill="white"/>
<rect x="0.25" y="0.25" width="39.5" height="39.5" rx="19.75" stroke="#D8DCDE" stroke-width="0.5"/>
<circle cx="20" cy="20" r="16" fill="#E9F6F8"/>
<path d="M9.09668 8.86472C9.16953 7.26196 10.4902 6 12.0946 6H27.9047C29.5091 6 30.8298 7.26196 30.9026 8.86471L31.7071 26.5628C31.7848 28.2719 30.4201 29.7001 28.7092 29.7001H11.2901C9.57922 29.7001 8.21454 28.2719 8.29222 26.5628L9.09668 8.86472Z" fill="white"/>
<path d="M11.1371 8.88418C11.1964 8.3804 11.6233 8.00073 12.1306 8.00073H27.9734C28.4806 8.00073 28.9076 8.3804 28.9669 8.88418L29.8633 16.5035V19.0043C29.8633 19.5568 29.4154 20.0047 28.8629 20.0047H11.2411C10.6886 20.0047 10.2407 19.5568 10.2407 19.0043V16.5035L11.1371 8.88418Z" fill="#E9F6F8"/>
<path fill-rule="evenodd" clip-rule="evenodd" d="M14.1521 26.6069C14.3731 26.6069 14.5522 26.7861 14.5522 27.0071V28.0951C14.5522 28.3161 14.3731 28.4952 14.1521 28.4952C13.9311 28.4952 13.752 28.3161 13.752 28.0951V27.0071C13.752 26.7861 13.9311 26.6069 14.1521 26.6069ZM16.0912 26.6069C16.3122 26.6069 16.4913 26.7861 16.4913 27.0071V28.0951C16.4913 28.3161 16.3122 28.4952 16.0912 28.4952C15.8702 28.4952 15.691 28.3161 15.691 28.0951V27.0071C15.691 26.7861 15.8702 26.6069 16.0912 26.6069ZM18.0303 26.6069C18.2513 26.6069 18.4304 26.7861 18.4304 27.0071V28.0951C18.4304 28.3161 18.2513 28.4952 18.0303 28.4952C17.8093 28.4952 17.6301 28.3161 17.6301 28.0951V27.0071C17.6301 26.7861 17.8093 26.6069 18.0303 26.6069ZM19.9694 26.6069C20.1904 26.6069 20.3695 26.7861 20.3695 27.0071V28.0951C20.3695 28.3161 20.1904 28.4952 19.9694 28.4952C19.7484 28.4952 19.5692 28.3161 19.5692 28.0951V27.0071C19.5692 26.7861 19.7484 26.6069 19.9694 26.6069ZM21.693 26.6069C21.914 26.6069 22.0931 26.7861 22.0931 27.0071V28.0951C22.0931 28.3161 21.914 28.4952 21.693 28.4952C21.472 28.4952 21.2929 28.3161 21.2929 28.0951V27.0071C21.2929 26.7861 21.472 26.6069 21.693 26.6069ZM23.6321 26.6069C23.8531 26.6069 24.0322 26.7861 24.0322 27.0071V28.0951C24.0322 28.3161 23.8531 28.4952 23.6321 28.4952C23.4111 28.4952 23.232 28.3161 23.232 28.0951V27.0071C23.232 26.7861 23.4111 26.6069 23.6321 26.6069ZM25.5712 26.6069C25.7922 26.6069 25.9713 26.7861 25.9713 27.0071V28.0951C25.9713 28.3161 25.7922 28.4952 25.5712 28.4952C25.3502 28.4952 25.1711 28.3161 25.1711 28.0951V27.0071C25.1711 26.7861 25.3502 26.6069 25.5712 26.6069Z" fill="#EF4550"/>
<path d="M29.8576 23.0057C29.8576 22.4532 29.4097 22.0054 28.8573 22.0054H27.1424C25.8796 22.0054 24.856 23.0291 24.856 24.2918C24.856 24.6865 25.1759 25.0064 25.5705 25.0064H28.8573C29.4097 25.0064 29.8576 24.5585 29.8576 24.006V23.0057Z" fill="white"/>
<path fill-rule="evenodd" clip-rule="evenodd" d="M8.68781 9.05415C8.78244 7.12052 10.378 5.59998 12.3154 5.59998H27.6565C27.6659 5.59998 27.6752 5.6003 27.6844 5.60093C29.6218 5.60093 31.2174 7.12053 31.312 9.05416L32.0965 16.2897V26.3127C32.1851 28.3771 30.5354 30.1003 28.4679 30.1003H11.5319C9.46445 30.1003 7.81468 28.3771 7.90331 26.3128V16.2897L8.68781 9.05415ZM27.6844 6.39928C27.6752 6.39991 27.6659 6.40024 27.6565 6.40024H12.3154C10.8015 6.40024 9.55538 7.59101 9.48664 9.10335L9.48607 9.11586L8.70358 16.3329V26.3307L8.70316 26.3398C8.62986 27.9525 9.91757 29.3 11.5319 29.3H28.4679C30.0822 29.3 31.3699 27.9525 31.2966 26.3398L31.2962 26.3307V16.3329L30.5137 9.11586L30.5132 9.10335C30.4444 7.59101 29.1983 6.39928 27.6844 6.39928Z" fill="#0C9AB0"/>
<path fill-rule="evenodd" clip-rule="evenodd" d="M10.7396 8.83746C10.8226 8.13217 11.4203 7.60063 12.1305 7.60063H27.9733C28.6834 7.60063 29.2812 8.13217 29.3642 8.83746L30.2633 16.4801V19.0044C30.2633 19.7778 29.6363 20.4048 28.8628 20.4048H11.2409C10.4675 20.4048 9.84048 19.7778 9.84048 19.0044V16.4801L10.7396 8.83746ZM12.1305 8.40089C11.8261 8.40089 11.57 8.62869 11.5344 8.93096L10.6407 16.527V19.0044C10.6407 19.3358 10.9095 19.6046 11.2409 19.6046H28.8628C29.1943 19.6046 29.463 19.3358 29.463 19.0044V16.527L28.5694 8.93096C28.5338 8.62869 28.2776 8.40089 27.9733 8.40089H12.1305Z" fill="#0C9AB0"/>
<path fill-rule="evenodd" clip-rule="evenodd" d="M10.8393 32.0086C10.8393 31.7876 11.0185 31.6085 11.2395 31.6085H28.7695C28.9905 31.6085 29.1697 31.7876 29.1697 32.0086C29.1697 32.2296 28.9905 32.4088 28.7695 32.4088H11.2395C11.0185 32.4088 10.8393 32.2296 10.8393 32.0086Z" fill="#0C9AB0"/>
<path fill-rule="evenodd" clip-rule="evenodd" d="M9.40129 33.5091C9.40129 33.2881 9.58043 33.109 9.80142 33.109H30.1573C30.3783 33.109 30.5574 33.2881 30.5574 33.5091C30.5574 33.7301 30.3783 33.9092 30.1573 33.9092H9.80142C9.58043 33.9092 9.40129 33.7301 9.40129 33.5091Z" fill="#0C9AB0"/>
<path fill-rule="evenodd" clip-rule="evenodd" d="M12.3911 30.8454C12.5474 31.0017 12.5474 31.2551 12.3911 31.4113L9.51022 34.2922C9.35396 34.4485 9.10061 34.4485 8.94435 34.2922C8.78809 34.136 8.78809 33.8826 8.94435 33.7263L11.8252 30.8454C11.9815 30.6892 12.2349 30.6892 12.3911 30.8454Z" fill="#0C9AB0"/>
<path fill-rule="evenodd" clip-rule="evenodd" d="M27.7968 31.0331C27.9531 30.8769 28.2064 30.8769 28.3627 31.0331L31.0559 33.7263C31.2121 33.8826 31.2121 34.1359 31.0559 34.2922C30.8996 34.4484 30.6462 34.4484 30.49 34.2922L27.7968 31.599C27.6405 31.4427 27.6405 31.1894 27.7968 31.0331Z" fill="#0C9AB0"/>
<path fill-rule="evenodd" clip-rule="evenodd" d="M9.75061 23.0057C9.75061 22.2322 10.3776 21.6052 11.1511 21.6052H12.8659C13.0869 21.6052 13.266 21.7844 13.266 22.0053C13.266 22.2263 13.0869 22.4055 12.8659 22.4055H11.1511C10.8196 22.4055 10.5509 22.6742 10.5509 23.0057V24.006C10.5509 24.3375 10.8196 24.6062 11.1511 24.6062H14.4379C14.6115 24.6062 14.7522 24.4654 14.7522 24.2918C14.7522 23.7301 14.5072 23.2261 14.1169 22.88C13.9516 22.7333 13.9364 22.4804 14.0831 22.3151C14.2297 22.1498 14.4826 22.1346 14.6479 22.2812C15.2022 22.7728 15.5525 23.4917 15.5525 24.2918C15.5525 24.9074 15.0535 25.4065 14.4379 25.4065H11.1511C10.3776 25.4065 9.75061 24.7795 9.75061 24.006V23.0057Z" fill="#0C9AB0"/>
<path fill-rule="evenodd" clip-rule="evenodd" d="M24.4554 24.2918C24.4554 22.808 25.6583 21.6052 27.142 21.6052H28.8569C29.6303 21.6052 30.2573 22.2322 30.2573 23.0057V24.006C30.2573 24.7795 29.6303 25.4065 28.8569 25.4065H25.5701C24.9545 25.4065 24.4554 24.9074 24.4554 24.2918ZM27.142 22.4055C26.1002 22.4055 25.2557 23.25 25.2557 24.2918C25.2557 24.4654 25.3964 24.6062 25.5701 24.6062H28.8569C29.1883 24.6062 29.4571 24.3375 29.4571 24.006V23.0057C29.4571 22.6742 29.1883 22.4055 28.8569 22.4055H27.142Z" fill="#0C9AB0"/>
<path fill-rule="evenodd" clip-rule="evenodd" d="M20.154 7.60063C20.375 7.60063 20.5541 7.77978 20.5541 8.00076V14.0027C20.5541 14.2237 20.375 14.4029 20.154 14.4029C19.933 14.4029 19.7539 14.2237 19.7539 14.0027V8.00076C19.7539 7.77978 19.933 7.60063 20.154 7.60063Z" fill="#0C9AB0"/>
</svg>
