<svg width="40" height="40" viewBox="0 0 40 40" fill="none" xmlns="http://www.w3.org/2000/svg">
<rect x="0.25" y="0.25" width="39.5" height="39.5" rx="19.75" fill="white"/>
<rect x="0.25" y="0.25" width="39.5" height="39.5" rx="19.75" stroke="#D8DCDE" stroke-width="0.5"/>
<circle cx="20" cy="20" r="16" fill="#E9F6F8"/>
<path d="M14 20C14 21.6569 12.6569 23 11 23C9.34315 23 8 21.6569 8 20C8 18.3431 9.34315 17 11 17C12.6569 17 14 18.3431 14 20Z" fill="white"/>
<path d="M23 20C23 21.6569 21.6569 23 20 23C18.3431 23 17 21.6569 17 20C17 18.3431 18.3431 17 20 17C21.6569 17 23 18.3431 23 20Z" fill="white"/>
<path d="M32 20C32 21.6569 30.6569 23 29 23C27.3431 23 26 21.6569 26 20C26 18.3431 27.3431 17 29 17C30.6569 17 32 18.3431 32 20Z" fill="white"/>
<path fill-rule="evenodd" clip-rule="evenodd" d="M11 22.2C12.215 22.2 13.2 21.215 13.2 20C13.2 18.785 12.215 17.8 11 17.8C9.78497 17.8 8.8 18.785 8.8 20C8.8 21.215 9.78497 22.2 11 22.2ZM11 23C12.6569 23 14 21.6569 14 20C14 18.3431 12.6569 17 11 17C9.34315 17 8 18.3431 8 20C8 21.6569 9.34315 23 11 23Z" fill="#0C9AB0"/>
<path fill-rule="evenodd" clip-rule="evenodd" d="M20 22.2C21.215 22.2 22.2 21.215 22.2 20C22.2 18.785 21.215 17.8 20 17.8C18.785 17.8 17.8 18.785 17.8 20C17.8 21.215 18.785 22.2 20 22.2ZM20 23C21.6569 23 23 21.6569 23 20C23 18.3431 21.6569 17 20 17C18.3431 17 17 18.3431 17 20C17 21.6569 18.3431 23 20 23Z" fill="#0C9AB0"/>
<path fill-rule="evenodd" clip-rule="evenodd" d="M29 22.2C30.215 22.2 31.2 21.215 31.2 20C31.2 18.785 30.215 17.8 29 17.8C27.785 17.8 26.8 18.785 26.8 20C26.8 21.215 27.785 22.2 29 22.2ZM29 23C30.6569 23 32 21.6569 32 20C32 18.3431 30.6569 17 29 17C27.3431 17 26 18.3431 26 20C26 21.6569 27.3431 23 29 23Z" fill="#0C9AB0"/>
</svg>
