<svg width="24" height="24" viewBox="0 0 24 24" fill="none" xmlns="http://www.w3.org/2000/svg">
<path d="M16.5 4C17.1904 4 17.75 4.55964 17.75 5.25V7H19.75C20.0815 7 20.3994 7.13179 20.6338 7.36621C20.8682 7.60063 21 7.91848 21 8.25V18.75C21 19.0815 20.8682 19.3994 20.6338 19.6338C20.3994 19.8682 20.0815 20 19.75 20H5C4.46957 20 3.96101 19.7891 3.58594 19.4141C3.21086 19.039 3 18.5304 3 18V6C3 5.46957 3.21086 4.96101 3.58594 4.58594C3.96101 4.21086 4.46957 4 5 4H16.5ZM4 18C4 18.2652 4.10543 18.5195 4.29297 18.707C4.48051 18.8946 4.73478 19 5 19H19.75C19.8163 19 19.8799 18.9736 19.9268 18.9268C19.9736 18.8799 20 18.8163 20 18.75V8.25C20 8.18369 19.9736 8.12013 19.9268 8.07324C19.8799 8.02636 19.8163 8 19.75 8H5C4.64545 8 4.30172 7.90393 4 7.72949V18ZM16.875 12.75C17.2892 12.75 17.625 13.0858 17.625 13.5C17.625 13.9142 17.2892 14.25 16.875 14.25C16.4608 14.25 16.125 13.9142 16.125 13.5C16.125 13.0858 16.4608 12.75 16.875 12.75ZM5 5C4.73478 5 4.4805 5.10543 4.29297 5.29297C4.10543 5.4805 4 5.73478 4 6C4 6.26522 4.10543 6.51949 4.29297 6.70703C4.48051 6.89457 4.73478 7 5 7H16.75V5.25C16.75 5.11193 16.6381 5 16.5 5H5Z" fill="#0C9AB0"/>
</svg>
