<svg width="32" height="32" viewBox="0 0 32 32" fill="none" xmlns="http://www.w3.org/2000/svg">
<path d="M2.69983 12.3014V3.67616C2.69983 3.36422 2.82434 3.06506 3.04598 2.84449C3.26761 2.62392 3.56821 2.5 3.88165 2.5H27.518C27.8314 2.5 28.132 2.62392 28.3537 2.84449C28.5753 3.06506 28.6998 3.36422 28.6998 3.67616V12.3014C28.6998 24.6533 18.166 28.7456 16.0627 29.4396C15.8275 29.5201 15.5721 29.5201 15.337 29.4396C13.2337 28.7456 2.69983 24.6533 2.69983 12.3014Z" fill="white"/>
<path fill-rule="evenodd" clip-rule="evenodd" d="M4.18179 2.90001C3.97383 2.90001 3.77476 2.98224 3.62829 3.12802C3.48188 3.27372 3.39998 3.47094 3.39998 3.67617V12.3014C3.39998 24.3667 13.6793 28.3724 15.7625 29.0597L15.7667 29.0612C15.9179 29.1129 16.0821 29.1129 16.2332 29.0612L16.2375 29.0597L16.2375 29.0597C18.3206 28.3724 28.6 24.3667 28.6 12.3014V3.67617C28.6 3.47094 28.5181 3.27372 28.3717 3.12802C28.2252 2.98224 28.0261 2.90001 27.8182 2.90001H4.18179ZM3.06396 2.56098C3.36075 2.2656 3.76289 2.10001 4.18179 2.10001H27.8182C28.2371 2.10001 28.6392 2.2656 28.936 2.56098C29.2329 2.85642 29.4 3.25752 29.4 3.67617V12.3014C29.4 24.9359 18.6186 29.1161 16.4902 29.8188C16.1724 29.9271 15.8275 29.9271 15.5097 29.8188C13.3814 29.1161 2.59998 24.9359 2.59998 12.3014V3.67617C2.59998 3.25752 2.7671 2.85641 3.06396 2.56098Z" fill="#0C9AB0"/>
<path d="M5 12.4862V5.45826C5 5.20409 5.10536 4.96033 5.29289 4.7806C5.48043 4.60088 5.73478 4.49991 6 4.49991H26C26.2652 4.49991 26.5196 4.60088 26.7071 4.7806C26.8946 4.96033 27 5.20409 27 5.45826V12.4862C27 22.5508 18.0868 26.8852 16.307 27.4507C16.1081 27.5163 15.8919 27.5163 15.693 27.4507C13.9132 26.8852 5 22.5508 5 12.4862Z" fill="#E9F6F8"/>
<path fill-rule="evenodd" clip-rule="evenodd" d="M5.99998 4.90001C5.83549 4.90001 5.68098 4.96279 5.56963 5.06949C5.45887 5.17565 5.39998 5.3159 5.39998 5.45836V12.4863C5.39998 16.4444 6.69935 19.2358 8.5 21.4999C8.63751 21.6728 8.60882 21.9244 8.43592 22.062C8.26302 22.1995 8.01139 22.1708 7.87388 21.9979C5.97777 19.6138 4.59998 16.6509 4.59998 12.4863V5.45836C4.59998 5.09248 4.7518 4.74521 5.0161 4.49191C5.27983 4.23916 5.63403 4.10001 5.99998 4.10001H26C26.3659 4.10001 26.7201 4.23916 26.9838 4.49191C27.2482 4.74521 27.4 5.09248 27.4 5.45836V12.4863C27.4 13.6013 27.2931 14.6494 27.0996 15.6326C27.0569 15.8494 26.8466 15.9905 26.6298 15.9478C26.4131 15.9052 26.2719 15.6949 26.3146 15.4781C26.498 14.5462 26.6 13.5499 26.6 12.4863V5.45836C26.6 5.3159 26.5411 5.17565 26.4303 5.06949C26.319 4.96279 26.1645 4.90001 26 4.90001H5.99998Z" fill="#91D2DC"/>
<path d="M22.5 24.9999V20.4999L21 19.4999L18 18.4999V16.4999C18 16.4999 17 16.9999 16 16.9999C15 16.9999 14.1788 16.5242 14 16.4999V18.9999L11.9375 19.2499L11.125 19.4999L9.5 20.9999V25.4999L13.5 27.9999L15.5 28.9999L22.5 24.9999Z" fill="white"/>
<path d="M16 16.9999C17.933 16.9999 19.5 15.4329 19.5 13.4999C20 13.4999 20.5 12.9999 20.5 12.1999C20.5 11.4999 20 10.9999 19.5 10.9999V8.99991C19 8.33324 17.6 6.99991 16 6.99991C14.4 6.99991 13 8.33324 12.5 8.99991V10.9999C12.1667 10.9999 11.5 11.3999 11.5 12.1999C11.5 12.9999 12 13.4999 12.5 13.4999C12.5 15.4329 14.067 16.9999 16 16.9999Z" fill="white"/>
<path fill-rule="evenodd" clip-rule="evenodd" d="M13.6125 7.41928C14.2624 6.97717 15.0907 6.60001 16 6.60001C16.9093 6.60001 17.7376 6.97717 18.3875 7.41928C19.0388 7.8624 19.5453 8.39383 19.82 8.76001C19.8719 8.82924 19.9 8.91346 19.9 9.00001V10.668C20.475 10.868 20.9 11.4854 20.9 12.2C20.9 12.9873 20.4779 13.6378 19.8856 13.837C19.7148 15.8332 18.0403 17.4 16 17.4C13.9596 17.4 12.2852 15.8332 12.1143 13.837C11.522 13.6378 11.1 12.9873 11.1 12.2C11.1 11.6792 11.3201 11.2782 11.598 11.0115C11.7469 10.8685 11.9223 10.7553 12.1 10.6841V9.00001C12.1 8.91346 12.128 8.82924 12.18 8.76001C12.4546 8.39383 12.9611 7.8624 13.6125 7.41928ZM12.9 9.13774V11C12.9 11.2209 12.7209 11.4 12.5 11.4C12.4616 11.4 12.3061 11.4406 12.152 11.5886C12.0132 11.7218 11.9 11.9209 11.9 12.2C11.9 12.8505 12.2861 13.1 12.5 13.1C12.7209 13.1 12.9 13.2791 12.9 13.5C12.9 15.2121 14.2879 16.6 16 16.6C17.7121 16.6 19.1 15.2121 19.1 13.5C19.1 13.2791 19.2791 13.1 19.5 13.1C19.7139 13.1 20.1 12.8505 20.1 12.2C20.1 11.6724 19.7335 11.4 19.5 11.4C19.2791 11.4 19.1 11.2209 19.1 11V9.13774C18.8579 8.83983 18.4495 8.42907 17.9375 8.08073C17.3624 7.68951 16.6907 7.40001 16 7.40001C15.3093 7.40001 14.6376 7.68951 14.0625 8.08073C13.5504 8.42907 13.142 8.83983 12.9 9.13774Z" fill="#0C9AB0"/>
<path d="M16.1997 6C12.1997 6 11.6997 9.01472 11.6997 11.5C13.6997 8.5 16.6997 10.5 17.6997 8.5C18.6997 10.5 19.1997 10 20.6997 11.5C20.6997 9.01472 20.1997 6 16.1997 6Z" fill="#91D2DC"/>
<path fill-rule="evenodd" clip-rule="evenodd" d="M13.6 19V16.5H14.4V19H13.6Z" fill="#0C9AB0"/>
<path fill-rule="evenodd" clip-rule="evenodd" d="M17.6 16.5H18.4V18.9992L17.6 19V16.5Z" fill="#0C9AB0"/>
<path fill-rule="evenodd" clip-rule="evenodd" d="M14.3877 18.6285C14.442 18.8426 14.3125 19.0602 14.0983 19.1146L12.0455 19.6353L11.0294 19.9479C10.3581 20.1545 9.89998 20.7748 9.89998 21.4772V23C9.89998 23.2209 9.72089 23.4 9.49998 23.4C9.27906 23.4 9.09998 23.2209 9.09998 23V21.4772C9.09998 20.4236 9.78715 19.4931 10.7942 19.1833L11.8294 18.8648L13.9016 18.3391C14.1158 18.2848 14.3334 18.4144 14.3877 18.6285Z" fill="#0C9AB0"/>
<path fill-rule="evenodd" clip-rule="evenodd" d="M15.9999 19.1901C16.8339 19.1901 17.5903 18.8613 18.1478 18.3254L18.7022 18.9022C18.0016 19.5755 17.0488 19.9901 15.9999 19.9901C15.018 19.9901 14.12 19.6267 13.4345 19.0276L13.961 18.4252C14.5062 18.9018 15.2189 19.1901 15.9999 19.1901Z" fill="#0C9AB0"/>
<path d="M15 12.5C15 12.7761 14.7761 13 14.5 13C14.2238 13 14 12.7761 14 12.5C14 12.2239 14.2238 12 14.5 12C14.7761 12 15 12.2239 15 12.5Z" fill="#0C9AB0"/>
<path d="M18 12.5C18 12.7761 17.7761 13 17.5 13C17.2238 13 17 12.7761 17 12.5C17 12.2239 17.2238 12 17.5 12C17.7761 12 18 12.2239 18 12.5Z" fill="#0C9AB0"/>
<path fill-rule="evenodd" clip-rule="evenodd" d="M11.9449 10.3637C12.274 10.0655 12.6197 9.846 12.9736 9.68341C13.6122 9.38999 14.2587 9.29102 14.8308 9.22745C14.9509 9.21411 15.0658 9.20237 15.1762 9.1911C15.6141 9.14638 15.9796 9.10905 16.3033 9.00861C16.6746 8.89336 16.9505 8.70457 17.1422 8.32112C17.2099 8.18561 17.3484 8.10001 17.5 8.10001C17.6515 8.10001 17.79 8.18561 17.8577 8.32112C18.334 9.27372 18.6697 9.59396 19.045 9.86201C19.1356 9.92676 19.2341 9.99152 19.3412 10.062C19.5498 10.1992 19.7913 10.358 20.0717 10.5803C20.0097 9.65197 19.8317 8.74709 19.405 8.02057C18.8623 7.09628 17.8799 6.40001 16 6.40001C14.12 6.40001 13.1377 7.09628 12.5949 8.02057C12.2015 8.69046 12.0195 9.51199 11.9449 10.3637ZM11.905 7.61548C12.6123 6.41109 13.88 5.60001 16 5.60001C18.12 5.60001 19.3877 6.41109 20.0949 7.61548C20.7777 8.77827 20.9 10.2471 20.9 11.5C20.9 11.6618 20.8025 11.8076 20.653 11.8696C20.5036 11.9315 20.3315 11.8972 20.2171 11.7828C19.6755 11.2413 19.2894 10.9869 18.9294 10.7497C18.8117 10.6721 18.6967 10.5964 18.58 10.513C18.1823 10.2289 17.8386 9.89873 17.4509 9.24778C17.1888 9.50661 16.8766 9.66832 16.5404 9.77266C16.1324 9.89927 15.6644 9.94644 15.2192 9.99131C15.1176 10.0015 15.0173 10.0117 14.9191 10.0226C14.3662 10.084 13.8252 10.1725 13.3076 10.4104C12.798 10.6445 12.2925 11.0324 11.8328 11.7219C11.735 11.8685 11.5528 11.9339 11.3841 11.8828C11.2154 11.8318 11.1 11.6763 11.1 11.5C11.1 10.2471 11.2222 8.77827 11.905 7.61548Z" fill="#0C9AB0"/>
<path fill-rule="evenodd" clip-rule="evenodd" d="M17.6124 18.6286C17.558 18.8427 17.6876 19.0603 17.9017 19.1146L19.9545 19.6353L20.9706 19.948C21.642 20.1546 22.1001 20.7748 22.1001 21.4772V23.0001C22.1001 23.221 22.2792 23.4001 22.5001 23.4001C22.721 23.4001 22.9001 23.221 22.9001 23.0001V21.4772C22.9001 20.4236 22.2129 19.4932 21.2059 19.1834L20.1706 18.8648L18.0984 18.3392C17.8843 18.2849 17.6667 18.4144 17.6124 18.6286Z" fill="#0C9AB0"/>
<path d="M30.1996 22.5001C30.1996 25.8138 27.5133 28.5001 24.1996 28.5001C20.8859 28.5001 18.1996 25.8138 18.1996 22.5001C18.1996 19.1864 20.8859 16.5001 24.1996 16.5001C27.5133 16.5001 30.1996 19.1864 30.1996 22.5001Z" fill="white"/>
<path fill-rule="evenodd" clip-rule="evenodd" d="M27.4825 20.2173C27.6387 20.3735 27.6387 20.6267 27.4825 20.7829L23.4825 24.7829C23.3263 24.9392 23.0731 24.9392 22.9168 24.7829L20.9168 22.7829C20.7606 22.6267 20.7606 22.3735 20.9168 22.2173C21.073 22.061 21.3263 22.061 21.4825 22.2173L23.1997 23.9344L26.9168 20.2173C27.0731 20.061 27.3263 20.061 27.4825 20.2173Z" fill="#EF4550"/>
<path fill-rule="evenodd" clip-rule="evenodd" d="M24.1997 16.9001C21.1069 16.9001 18.5997 19.4073 18.5997 22.5001C18.5997 25.5929 21.1069 28.1001 24.1997 28.1001C24.4206 28.1001 24.5997 28.2792 24.5997 28.5001C24.5997 28.721 24.4206 28.9001 24.1997 28.9001C20.6651 28.9001 17.7997 26.0347 17.7997 22.5001C17.7997 18.9655 20.6651 16.1001 24.1997 16.1001C27.7343 16.1001 30.5997 18.9655 30.5997 22.5001C30.5997 25.2873 28.8182 27.6574 26.333 28.5358C26.1247 28.6094 25.8962 28.5003 25.8225 28.292C25.7489 28.0837 25.8581 27.8552 26.0664 27.7815C28.242 27.0126 29.7997 24.9377 29.7997 22.5001C29.7997 19.4073 27.2925 16.9001 24.1997 16.9001Z" fill="#0C9AB0"/>
</svg>
