<svg width="32" height="32" viewBox="0 0 32 32" fill="none" xmlns="http://www.w3.org/2000/svg">
<circle cx="16" cy="16" r="16" fill="#E9F6F8"/>
<path d="M6.78989 22.826L22.5782 27.793C22.9896 26.4851 24.3834 25.7583 25.6913 26.1696L27.9994 18.8327L17.8457 15.4407L6.30728 16.0866L5.16652 19.7127C5.16646 19.7126 5.16658 19.7127 5.16652 19.7127C6.47446 20.1241 7.20136 21.5181 6.78989 22.826C6.78989 22.826 6.78988 22.8261 6.78989 22.826Z" fill="#BDE4EA"/>
<path fill-rule="evenodd" clip-rule="evenodd" d="M17.8235 15.0413C17.874 15.0385 17.9246 15.0453 17.9726 15.0613L28.1264 18.4533C28.3333 18.5224 28.4467 18.7446 28.3812 18.9527L26.073 26.2897C26.0067 26.5004 25.7822 26.6175 25.5715 26.5512C24.4743 26.2062 23.3051 26.8159 22.96 27.913C22.8937 28.1238 22.6691 28.2408 22.4583 28.1745L6.67005 23.2076L6.7368 22.9954C6.51994 22.9197 6.40852 22.706 6.40852 22.706M6.79008 22.8261L6.73681 22.9954L6.79008 22.8261ZM7.26542 22.5563L22.3431 27.2996C22.8932 26.1393 24.1554 25.4812 25.4217 25.6943L27.5001 19.0875L17.7918 15.8444L6.60602 16.4705L5.66006 19.4774C6.82045 20.0276 7.47869 21.2899 7.26542 22.5563ZM17.8235 15.0413L6.28512 15.6872L17.8235 15.0413ZM6.28512 15.6872C6.11892 15.6965 5.97586 15.8077 5.92591 15.9665L6.28512 15.6872ZM5.92591 15.9665L4.78516 19.5926L5.92591 15.9665ZM4.78516 19.5926L4.99734 19.6594L4.78516 19.5926ZM4.99737 19.6594C4.93565 19.8792 5.04539 20.0917 5.04669 20.0942L5.16672 19.7127L4.99737 19.6594ZM4.99753 19.6588C5.03055 19.5418 5.11221 19.4227 5.28473 19.3322C5.26291 19.3441 5.0691 19.4546 4.99753 19.6588Z" fill="#0C9AB0"/>
<path fill-rule="evenodd" clip-rule="evenodd" d="M4 8.9792C5.52932 8.97912 6.76905 7.73933 6.76905 6.20999H25.2306C25.2306 7.73939 26.4704 8.9792 27.9998 8.9792V20.0561C26.4704 20.0561 25.2306 21.2959 25.2306 22.8253H6.76905C6.76905 21.2959 5.52932 20.0561 4 20.0561V8.9792Z" fill="white"/>
<path d="M21.5381 6.20999H25.2304C25.2304 6.20999 25.3807 7.93036 26.1534 8.51767C26.7451 8.96734 27.9996 8.97921 27.9996 8.97921V20.0561C27.9996 20.0561 26.7234 20.4092 26.1534 20.9791C25.5835 21.5491 25.2304 22.8253 25.2304 22.8253H21.5381V6.20999Z" fill="#E9F6F8"/>
<path fill-rule="evenodd" clip-rule="evenodd" d="M6.36931 6.21C6.36931 5.98908 6.5484 5.81 6.76931 5.81H25.2307C25.4516 5.81 25.6307 5.98908 25.6307 6.21C25.6307 7.51848 26.6915 8.57921 27.9999 8.57921C28.2209 8.57921 28.3999 8.7583 28.3999 8.97921V20.0561C28.3999 20.277 28.2209 20.4561 27.9999 20.4561C26.6915 20.4561 25.6307 21.5168 25.6307 22.8253C25.6307 23.0462 25.4516 23.2253 25.2307 23.2253H6.76931C6.5484 23.2253 6.36931 23.0462 6.36931 22.8253C6.36931 21.5168 5.30858 20.4561 4.0001 20.4561C3.77918 20.4561 3.6001 20.277 3.6001 20.0561V8.97921C3.6001 8.7583 3.77918 8.57921 4.0001 8.57921C5.30858 8.57921 6.36931 7.51848 6.36931 6.21ZM7.14431 6.61C6.96416 8.04046 5.83056 9.17406 4.4001 9.35421V19.6811C5.83056 19.8612 6.96416 20.9948 7.14431 22.4253H24.8557C25.0359 20.9948 26.1695 19.8612 27.5999 19.6811V9.35421C26.1695 9.17406 25.0359 8.04046 24.8557 6.61H7.14431Z" fill="#0C9AB0"/>
<path fill-rule="evenodd" clip-rule="evenodd" d="M6.36963 17.9792C6.36963 17.7583 6.54872 17.5792 6.76963 17.5792H12.3081C12.529 17.5792 12.7081 17.7583 12.7081 17.9792C12.7081 18.2001 12.529 18.3792 12.3081 18.3792H6.76963C6.54872 18.3792 6.36963 18.2001 6.36963 17.9792Z" fill="#0C9AB0"/>
<path fill-rule="evenodd" clip-rule="evenodd" d="M6.36963 15.21C6.36963 14.9891 6.54872 14.81 6.76963 14.81H16.0003C16.2213 14.81 16.4003 14.9891 16.4003 15.21C16.4003 15.4309 16.2213 15.61 16.0003 15.61H6.76963C6.54872 15.61 6.36963 15.4309 6.36963 15.21Z" fill="#0C9AB0"/>
<path fill-rule="evenodd" clip-rule="evenodd" d="M14.6772 17.9792C14.6772 17.7583 14.8563 17.5792 15.0772 17.5792H17.8465C18.0674 17.5792 18.2465 17.7583 18.2465 17.9792C18.2465 18.2001 18.0674 18.3792 17.8465 18.3792H15.0772C14.8563 18.3792 14.6772 18.2001 14.6772 17.9792Z" fill="#0C9AB0"/>
<path fill-rule="evenodd" clip-rule="evenodd" d="M21.477 7.13306C21.6979 7.13306 21.877 7.31214 21.877 7.53306L21.877 8.69715C21.877 8.91807 21.6979 9.09715 21.477 9.09715C21.256 9.09715 21.077 8.91807 21.077 8.69715L21.077 7.53306C21.077 7.31214 21.256 7.13306 21.477 7.13306ZM21.477 10.6253C21.6979 10.6253 21.877 10.8044 21.877 11.0253L21.877 13.3535C21.877 13.5744 21.6979 13.7535 21.477 13.7535C21.256 13.7535 21.077 13.5744 21.077 13.3535L21.077 11.0253C21.077 10.8044 21.256 10.6253 21.477 10.6253ZM21.477 15.2817C21.6979 15.2817 21.877 15.4608 21.877 15.6817L21.877 18.0099C21.877 18.2308 21.6979 18.4099 21.477 18.4099C21.256 18.4099 21.077 18.2308 21.077 18.0099L21.077 15.6817C21.077 15.4608 21.256 15.2817 21.477 15.2817ZM21.477 19.9381C21.6979 19.9381 21.877 20.1172 21.877 20.3381L21.877 21.5022C21.877 21.7231 21.6979 21.9022 21.477 21.9022C21.256 21.9022 21.077 21.7231 21.077 21.5022L21.077 20.3381C21.077 20.1172 21.256 19.9381 21.477 19.9381Z" fill="#EF4550"/>
<path fill-rule="evenodd" clip-rule="evenodd" d="M9.6001 5.71C9.6001 4.66066 10.4508 3.81 11.5001 3.81C12.5494 3.81 13.4001 4.66066 13.4001 5.71V5.81547H12.6001V5.71C12.6001 5.10248 12.1076 4.61 11.5001 4.61C10.8926 4.61 10.4001 5.10248 10.4001 5.71V11.21C10.4001 11.5414 10.6687 11.81 11.0001 11.81C11.3315 11.81 11.6001 11.5414 11.6001 11.21V8.21C11.6001 7.98908 11.7792 7.81 12.0001 7.81C12.221 7.81 12.4001 7.98908 12.4001 8.21V11.21C12.4001 11.9832 11.7733 12.61 11.0001 12.61C10.2269 12.61 9.6001 11.9832 9.6001 11.21V5.71Z" fill="#EF4550"/>
</svg>
