<svg width="24" height="24" viewBox="0 0 24 24" fill="none" xmlns="http://www.w3.org/2000/svg">
<rect width="24" height="24" fill="#FE0041"/>
<path d="M18.6 18.5981C18.4257 18.6132 18.2707 18.5363 18.1089 18.4936C17.7826 18.4073 17.4631 18.303 17.1576 18.156C16.677 17.9246 16.2574 17.6104 15.8742 17.2423C15.5779 16.9577 15.3363 16.6284 15.0871 16.3046C14.7812 15.9074 14.4831 15.5028 14.1556 15.1239C13.7902 14.7011 13.3633 14.3459 12.8483 14.1093C12.4548 13.9285 12.0432 13.8105 11.6162 13.7423C10.9606 13.6377 10.3024 13.638 9.6432 13.6926C9.34377 13.7174 9.04576 13.7639 8.74607 13.7793C8.23546 13.8055 7.75393 13.6935 7.31575 13.4223C7.18816 13.3433 7.07861 13.2432 7.00411 13.0971C7.0276 13.0909 7.04474 13.0851 7.06239 13.0819C7.61297 12.9812 8.13812 12.8068 8.62445 12.5275C8.89339 12.3731 9.11832 12.1698 9.25201 11.8819C9.38414 11.5973 9.38037 11.3028 9.30159 11.0069C9.18672 10.5753 8.96101 10.1984 8.69104 9.85038C8.44884 9.53802 8.19224 9.23616 7.92876 8.94144C7.61064 8.58573 7.26889 8.25104 6.95531 7.89157C6.61045 7.49614 6.24482 7.11616 5.9633 6.66896C5.78924 6.39228 5.63077 6.10781 5.52797 5.79519C5.49435 5.69319 5.4488 5.59508 5.41232 5.49398C5.40181 5.46491 5.40376 5.43143 5.39999 5.40002C5.41726 5.40002 5.43465 5.40002 5.45191 5.40002C5.52278 5.43013 5.59365 5.46024 5.66451 5.49035C5.88179 5.58288 6.10153 5.66983 6.31556 5.7691C6.72648 5.95961 7.14001 6.14558 7.54198 6.35387C8.30101 6.74734 9.0333 7.18598 9.702 7.72286C9.9808 7.94672 10.2467 8.1846 10.447 8.48516C10.5454 8.63284 10.5997 8.79584 10.626 8.97311C10.6844 9.36607 10.6675 9.76188 10.6852 10.1563C10.6984 10.4523 10.7128 10.7476 10.8107 11.032C10.9363 11.3968 11.2266 11.5756 11.6075 11.5162C11.8833 11.4731 12.1593 11.4316 12.4396 11.4567C12.86 11.4945 13.2477 11.6196 13.5761 11.8951C13.6621 11.9673 13.7334 12.053 13.778 12.1671C13.7229 12.1736 13.6736 12.1757 13.6259 12.1858C13.3962 12.2347 13.1663 12.2838 12.9376 12.3373C12.8265 12.3632 12.7214 12.4084 12.6394 12.4909C12.51 12.6212 12.5297 12.6945 12.6522 12.7968C12.7799 12.9035 12.9353 12.958 13.094 12.9889C13.4395 13.0559 13.787 13.1141 14.1347 13.1694C14.4914 13.2261 14.8491 13.2758 15.1845 13.4201C15.433 13.527 15.6436 13.6838 15.8189 13.8907C16.2263 14.371 16.5679 14.8958 16.865 15.449C17.164 16.0059 17.454 16.5675 17.7397 17.1313C17.964 17.5738 18.2344 17.9879 18.4984 18.4063C18.529 18.455 18.5659 18.4996 18.5999 18.5462V18.5981H18.6Z" fill="white"/>
</svg>
