<svg preserveAspectRatio="none" width="100%" height="100%" overflow="visible" style="display: block;" viewBox="0 0 11.666 13.166" fill="none" xmlns="http://www.w3.org/2000/svg">
<path id="Union" d="M6.08789 0.0126953C6.67928 0.0713199 7.23619 0.332044 7.66016 0.755859C8.14455 1.24025 8.41593 1.89798 8.41602 2.58301V4.5H10.833C11.2931 4.5 11.6658 4.87292 11.666 5.33301V12.333C11.666 12.7932 11.2932 13.166 10.833 13.166H0.833008C0.37292 13.1658 0 12.7931 0 12.333V5.33301C0.000175707 4.87303 0.373029 4.50018 0.833008 4.5H3.25V2.58301C3.25009 1.89798 3.52147 1.24025 4.00586 0.755859C4.49025 0.271467 5.14798 8.59776e-05 5.83301 0L6.08789 0.0126953ZM0.833008 5.16602C0.741217 5.16619 0.666192 5.24122 0.666016 5.33301V12.333C0.666016 12.4249 0.74111 12.4998 0.833008 12.5H10.833C10.9251 12.5 11 12.4251 11 12.333V5.33301C10.9998 5.24111 10.9249 5.16602 10.833 5.16602H0.833008ZM5.83398 8.33301C6.10987 8.33318 6.33381 8.55712 6.33398 8.83301C6.33398 9.10904 6.10998 9.33283 5.83398 9.33301C5.55784 9.33301 5.33398 9.10915 5.33398 8.83301C5.33416 8.55702 5.55795 8.33301 5.83398 8.33301ZM5.83301 0.666016C5.32479 0.666102 4.83691 0.868171 4.47754 1.22754C4.11817 1.58691 3.9161 2.07479 3.91602 2.58301V4.5H7.75V2.58301C7.74991 2.07479 7.54784 1.58691 7.18848 1.22754C6.82906 0.868298 6.34119 0.666016 5.83301 0.666016Z" fill="var(--fill-0, #A1AAAD)"/>
</svg>
