<svg preserveAspectRatio="none" width="100%" height="100%" overflow="visible" style="display: block;" viewBox="0 0 20.1 15.6" fill="none" xmlns="http://www.w3.org/2000/svg">
<g id="outlined">
<path id="Rectangle 3124" d="M0.3 1.05C0.3 0.635787 0.635787 0.3 1.05 0.3H19.05C19.4642 0.3 19.8 0.635787 19.8 1.05V14.55C19.8 14.9642 19.4642 15.3 19.05 15.3H1.05C0.635787 15.3 0.3 14.9642 0.3 14.55V1.05Z" fill="var(--fill-0, #BDE4EA)"/>
<path id="Rectangle 3124 (Stroke)" fill-rule="evenodd" clip-rule="evenodd" d="M0 1.05C0 0.470101 0.470101 0 1.05 0H19.05C19.6299 0 20.1 0.470101 20.1 1.05V14.55C20.1 15.1299 19.6299 15.6 19.05 15.6H1.05C0.470102 15.6 0 15.1299 0 14.55V1.05ZM1.05 0.6C0.801472 0.6 0.6 0.801472 0.6 1.05V14.55C0.6 14.7985 0.801472 15 1.05 15H19.05C19.2985 15 19.5 14.7985 19.5 14.55V1.05C19.5 0.801472 19.2985 0.6 19.05 0.6H1.05Z" fill="var(--fill-0, #0C9AB0)"/>
<path id="Rectangle 3126" d="M1.20015 1.57501C1.20015 1.3679 1.36804 1.20001 1.57515 1.20001H18.5251C18.7323 1.20001 18.9001 1.3679 18.9001 1.57501V14.025C18.9001 14.2321 18.7323 14.4 18.5251 14.4H1.57515C1.36804 14.4 1.20015 14.2321 1.20015 14.025V1.57501Z" fill="var(--fill-0, #E9F6F8)"/>
<path id="Vector 588 (Stroke)" fill-rule="evenodd" clip-rule="evenodd" d="M18 3.3C18 3.13431 18.1343 3 18.3 3H19.8V3.6H18.3C18.1343 3.6 18 3.46569 18 3.3Z" fill="var(--fill-0, #0C9AB0)"/>
<path id="Vector 589 (Stroke)" fill-rule="evenodd" clip-rule="evenodd" d="M18 6.3C18 6.13432 18.1343 6 18.3 6H19.8V6.6H18.3C18.1343 6.6 18 6.46569 18 6.3Z" fill="var(--fill-0, #0C9AB0)"/>
<path id="Vector 590 (Stroke)" fill-rule="evenodd" clip-rule="evenodd" d="M18 9.3C18 9.13432 18.1343 9 18.3 9H19.8V9.6H18.3C18.1343 9.6 18 9.46569 18 9.3Z" fill="var(--fill-0, #0C9AB0)"/>
<path id="Vector 591 (Stroke)" fill-rule="evenodd" clip-rule="evenodd" d="M18 12.3C18 12.1343 18.1343 12 18.3 12H19.8V12.6H18.3C18.1343 12.6 18 12.4657 18 12.3Z" fill="var(--fill-0, #0C9AB0)"/>
<path id="Vector 588 (Stroke)_2" fill-rule="evenodd" clip-rule="evenodd" d="M0 3H1.8C1.96569 3 2.1 3.13431 2.1 3.3C2.1 3.46569 1.96569 3.6 1.8 3.6H0V3Z" fill="var(--fill-0, #0C9AB0)"/>
<path id="Vector 589 (Stroke)_2" fill-rule="evenodd" clip-rule="evenodd" d="M0 6H1.8C1.96569 6 2.1 6.13432 2.1 6.3C2.1 6.46569 1.96569 6.6 1.8 6.6H0V6Z" fill="var(--fill-0, #0C9AB0)"/>
<path id="Vector 590 (Stroke)_2" fill-rule="evenodd" clip-rule="evenodd" d="M0 9H1.8C1.96569 9 2.1 9.13432 2.1 9.3C2.1 9.46569 1.96569 9.6 1.8 9.6H0V9Z" fill="var(--fill-0, #0C9AB0)"/>
<path id="Vector 591 (Stroke)_2" fill-rule="evenodd" clip-rule="evenodd" d="M0 12H1.8C1.96569 12 2.1 12.1343 2.1 12.3C2.1 12.4657 1.96569 12.6 1.8 12.6H0V12Z" fill="var(--fill-0, #0C9AB0)"/>
<path id="Rectangle 3125" d="M4.05 13.05H16.05C16.4642 13.05 16.8 12.7142 16.8 12.3V5.11066C16.8 4.91175 16.721 4.72098 16.5803 4.58033L14.7697 2.76967C14.629 2.62902 14.4383 2.55 14.2393 2.55H4.05C3.63579 2.55 3.3 2.88579 3.3 3.3V12.3C3.3 12.7142 3.63579 13.05 4.05 13.05Z" fill="var(--fill-0, white)"/>
<path id="Rectangle 3125 (Stroke)" fill-rule="evenodd" clip-rule="evenodd" d="M4.05 2.85C3.80147 2.85 3.6 3.05147 3.6 3.3V12.3C3.6 12.5485 3.80147 12.75 4.05 12.75H16.05C16.2985 12.75 16.5 12.5485 16.5 12.3V5.11066C16.5 4.99131 16.4526 4.87685 16.3682 4.79246L14.5575 2.9818C14.4731 2.89741 14.3587 2.85 14.2393 2.85H4.05ZM3 3.3C3 2.7201 3.4701 2.25 4.05 2.25H14.2393C14.5178 2.25 14.7849 2.36062 14.9818 2.55754L16.7925 4.3682C16.9894 4.56511 17.1 4.83218 17.1 5.11066V12.3C17.1 12.8799 16.6299 13.35 16.05 13.35H4.05C3.4701 13.35 3 12.8799 3 12.3V3.3Z" fill="var(--fill-0, #0C9AB0)"/>
<g id="eSIM">
<path d="M5.18965 8.2585V7.99922C5.18965 7.33564 5.6291 6.89619 6.29048 6.89619C6.9123 6.89619 7.35176 7.33125 7.35176 7.91353C7.35176 8.18159 7.25728 8.27827 7.00459 8.27827H5.90815V8.36396C5.91255 8.64082 6.09712 8.82759 6.41133 8.82759C6.58052 8.82759 6.69478 8.79023 6.78486 8.72432C6.89253 8.6562 6.93867 8.61445 7.04853 8.61445C7.19136 8.61445 7.28584 8.70674 7.28584 8.85615C7.28584 8.9814 7.20894 9.09126 7.0749 9.17476C6.9145 9.28901 6.65742 9.35713 6.36079 9.35713C5.63569 9.35713 5.18965 8.94404 5.18965 8.2585ZM5.90815 7.87397H6.68599V7.86738C6.68599 7.59932 6.53657 7.42353 6.30586 7.42353C6.05757 7.42353 5.90815 7.60371 5.90815 7.86738V7.87397Z" fill="#EF4550"/>
<path d="M7.67036 8.68257C7.67036 8.50679 7.7978 8.38374 7.95381 8.38374C8.05928 8.38374 8.14936 8.42329 8.27021 8.53096C8.45039 8.70015 8.66792 8.79243 8.88984 8.79243C9.20405 8.79243 9.37324 8.67817 9.37324 8.47163C9.37324 8.30464 9.24141 8.20137 8.925 8.13325L8.51191 8.03877C7.97139 7.92451 7.70552 7.64546 7.70552 7.18623C7.70552 6.61055 8.15376 6.2458 8.85688 6.2458C9.24141 6.2458 9.58857 6.35786 9.79072 6.54902C9.92036 6.66768 9.98848 6.79951 9.98848 6.93354C9.98848 7.09395 9.87422 7.20381 9.70503 7.20381C9.61055 7.20381 9.51606 7.16206 9.42378 7.07417C9.26997 6.90498 9.09199 6.81709 8.86567 6.81709C8.5998 6.81709 8.43281 6.93794 8.43281 7.1269C8.43281 7.2917 8.56025 7.40815 8.83931 7.46309L9.25679 7.55317C9.81489 7.66523 10.0852 7.93989 10.0852 8.39473C10.0852 8.98579 9.60395 9.36592 8.85249 9.36592C8.4394 9.36592 8.07246 9.24727 7.86811 9.05391C7.74067 8.93306 7.67036 8.80561 7.67036 8.68257Z" fill="#EF4550"/>
<path d="M10.8916 9.32197C10.6586 9.32197 10.5246 9.17915 10.5246 8.93086V6.66987C10.5246 6.41938 10.6542 6.27876 10.8872 6.27876C11.1201 6.27876 11.2519 6.42158 11.2519 6.66987V8.93086C11.2519 9.18135 11.1223 9.32197 10.8916 9.32197Z" fill="#EF4550"/>
<path d="M12.1616 9.32197C11.9528 9.32197 11.843 9.19014 11.843 8.94404V6.74678C11.843 6.45454 12.01 6.27656 12.278 6.27656C12.5109 6.27656 12.6625 6.39302 12.779 6.70723L13.3613 8.20576H13.3854L13.9655 6.70503C14.0842 6.38643 14.227 6.27656 14.4709 6.27656C14.7434 6.27656 14.8994 6.44795 14.8994 6.74678V8.94404C14.8994 9.18354 14.7785 9.32197 14.5676 9.32197C14.361 9.32197 14.2512 9.19014 14.2512 8.94404V7.43452H14.2314L13.7084 8.77046C13.6228 8.99458 13.5217 9.06489 13.3745 9.06489C13.225 9.06489 13.1218 8.99019 13.0361 8.77046L12.5109 7.43452H12.4934V8.94404C12.4934 9.18354 12.3725 9.32197 12.1616 9.32197Z" fill="#EF4550"/>
</g>
</g>
</svg>
